<?xml version="1.0" encoding="UTF-8" standalone="no"?><!DOCTYPE svg PUBLIC "-//W3C//DTD SVG 1.1//EN" "http://www.w3.org/Graphics/SVG/1.1/DTD/svg11.dtd"><svg width="40%" height="40%" viewBox="0 0 735 868" version="1.1" xmlns="http://www.w3.org/2000/svg" xmlns:xlink="http://www.w3.org/1999/xlink" xml:space="preserve" xmlns:serif="http://www.serif.com/" style="fill-rule:evenodd;clip-rule:evenodd;stroke-linejoin:round;stroke-miterlimit:2;"><g id="layer3"><g id="g3094"><path id="path2940" d="M346.638,0.008c-1.329,0.016 -7.36,2.062 -14.018,4.771c-13.077,5.321 -15.462,5.963 -16.032,4.357c-0.174,-0.491 -3.526,-1.258 -7.438,-1.69c-6.128,-0.676 -8.521,-0.451 -17.307,1.66c-12.006,2.884 -15.49,5.351 -15.706,11.113c-0.202,5.36 -2.841,8.254 -7.854,8.564c-4.447,0.275 -10.342,-2.468 -10.342,-4.8c0,-0.678 -1.296,-2.014 -2.904,-2.964c-2.569,-1.517 -3.444,-1.56 -7.113,-0.533c-2.297,0.643 -5.403,0.922 -6.905,0.622c-2.651,-0.53 -2.757,-0.404 -3.585,4.386c-0.593,3.423 -0.455,7.325 0.444,12.772c0.712,4.316 1.037,8.476 0.741,9.247c-1.237,3.224 -13.159,0.278 -12.358,-3.053c1.422,-5.907 -7.144,-3.809 -11.528,2.815c-1.423,2.151 -2.782,5.63 -3.022,7.765c-0.412,3.649 -0.217,4.048 3.348,6.519c3.425,2.373 3.858,3.151 4.446,7.854c0.722,5.785 -0.277,7.942 -3.675,7.942c-2.506,0 -5.305,-4.378 -5.305,-8.298c0,-1.595 -0.799,-3.541 -1.896,-4.534c-1.827,-1.653 -2.168,-1.66 -6.965,-0.148c-3.006,0.947 -6.072,2.746 -7.586,4.445c-5.934,6.659 -16.728,0.813 -16.744,-9.068c-0.005,-3.162 -0.491,-4.231 -2.785,-5.927c-2.524,-1.866 -3.137,-1.952 -6.342,-0.889c-2.835,0.94 -3.732,1.819 -4.386,4.356c-0.654,2.538 -0.489,3.414 0.8,4.356c3.678,2.69 -0.984,17.415 -6.697,21.13c-4.612,2.998 -11.532,17.328 -9.75,20.181c0.661,1.059 1.931,2.14 2.845,2.43c3.286,1.043 0.875,7.578 -2.549,6.905c-1.977,-0.388 -2.714,-1.576 -4.356,-7.142c-0.845,-2.864 -1.786,-4.097 -3.408,-4.504c-2.367,-0.594 -3.001,-3.193 -1.215,-4.979c0.566,-0.566 0.886,-2.029 0.711,-3.26c-0.41,-2.892 -6.142,-5.815 -8.713,-4.445c-2.845,1.516 -6.852,-0.843 -12.091,-7.112c-4.21,-5.039 -4.726,-6.109 -4.148,-8.654c0.362,-1.596 0.726,-5.678 0.8,-9.068c0.132,-6.069 0.098,-6.163 -2.49,-6.46c-2.731,-0.314 -9.246,3.025 -9.246,4.741c0,0.529 -2.016,4.647 -4.475,9.157c-2.959,5.43 -4.363,9.086 -4.178,10.847c0.184,1.755 -0.952,4.725 -3.349,8.742c-3.459,5.797 -5.616,7.522 -10.283,8.238c-1.079,0.166 -2.475,1.654 -3.26,3.438c-1.179,2.679 -1.731,3.049 -3.793,2.549c-1.328,-0.323 -4.012,-1.632 -5.957,-2.905c-4.855,-3.176 -9.003,-2.988 -13.987,0.623c-3.335,2.415 -4.595,2.811 -7.261,2.311c-2.432,-0.456 -3.903,-0.129 -5.956,1.334c-3.696,2.631 -10.072,2.669 -11.469,0.059c-1.367,-2.555 -3.439,-2.413 -4.119,0.296c-0.626,2.494 -4.728,4.756 -7.201,3.971c-0.908,-0.288 -2.783,0.384 -4.179,1.482c-2.062,1.622 -2.519,2.752 -2.519,6.253c0,3.832 0.593,4.981 5.69,11.143c3.159,3.82 5.69,7.816 5.69,8.979c0,1.152 1.047,3.029 2.311,4.179c9.12,8.295 8.414,7.108 7.824,13.424c-0.296,3.168 -0.807,6.5 -1.156,7.409c-0.349,0.909 -4.122,3.399 -8.387,5.512c-6.622,3.282 -8.124,3.707 -10.312,2.875c-2.015,-0.766 -3.508,-0.581 -6.935,0.889c-2.397,1.027 -4.951,1.867 -5.69,1.867c-0.739,0 -1.363,0.64 -1.363,1.422c0,0.782 0.344,1.422 0.771,1.422c0.426,0 2.465,3.769 4.504,8.387c4.267,9.662 8.236,13.425 14.165,13.425c5.565,0 7.113,1.341 7.113,6.075c0,2.507 -0.667,4.99 -1.719,6.371c-0.948,1.244 -3.464,5.318 -5.601,9.068l-3.882,6.816l1.007,6.935c0.791,5.331 1.778,7.94 4.209,11.32c3.557,4.949 4.068,5.35 16.21,12.091c9.956,5.529 14.27,6.147 21.218,2.994c4.551,-2.065 7.926,-2.523 6.935,-0.919c-0.346,0.56 0.292,1.997 1.422,3.2c1.913,2.036 1.97,2.441 0.711,5.453c-0.744,1.781 -3.811,5.882 -6.816,9.128l-5.482,5.897l1.185,4.238l1.215,4.267l7.35,0c5.194,0 7.655,-0.41 8.446,-1.363c0.615,-0.742 2.91,-1.621 5.097,-1.985c7.555,-1.26 19.618,-8.632 19.618,-11.973c0,-2.201 6.165,-14.618 7.735,-15.588c0.619,-0.383 2.429,-0.947 4.03,-1.274c2.975,-0.608 4.783,-3.049 5.72,-7.705c0.723,-3.595 6.145,-8.694 13.098,-12.299l6.105,-3.17l13.662,3.585c16.628,4.345 18.491,5.016 22.166,8.18c9.449,8.131 20.635,14.996 29.872,18.314c5.322,1.911 10.446,3.467 11.41,3.467c2.195,0 9.975,8.695 12.298,13.751c1.232,2.68 1.945,7.328 2.43,15.884c0.378,6.658 1.053,12.341 1.511,12.624c0.459,0.283 0.83,1.509 0.83,2.697c0,1.225 1.668,3.869 3.823,6.134c7.013,7.373 10.83,18.232 9.75,27.679c-0.391,3.425 0.01,5.346 1.926,9.128c2.204,4.348 2.784,4.831 6.312,5.304c5.294,0.71 6.962,2.235 6.253,5.779c-0.466,2.331 -0.037,3.41 2.46,5.986c1.674,1.727 3.479,3.142 4.001,3.142c4.441,0 18.581,16.42 18.581,21.574c0,2.292 -0.433,3.024 -2.015,3.26c-4.959,0.737 -4.606,6.022 0.533,7.853c2.215,0.789 2.853,0.6 4.356,-1.393c2.211,-2.93 6.693,-2.755 12.536,0.504c2.224,1.24 5.516,2.994 7.32,3.911c4.066,2.069 10.463,8.562 10.49,10.639c0.011,0.85 1.405,4.315 3.112,7.705c2.798,5.558 3.437,6.183 6.312,6.461c5.132,0.496 16.504,8.757 18.907,13.721c1.101,2.274 1.986,4.784 1.986,5.601c0,0.816 1.386,2.548 3.082,3.852c5.608,4.315 14.421,13.281 17.84,18.166c3.175,4.537 3.88,5.006 12.328,7.913c7.801,2.684 9.478,3.665 12.95,7.586c2.194,2.477 4.114,5.358 4.268,6.401c0.203,1.383 1.116,1.973 3.408,2.193c1.729,0.166 3.693,-0.161 4.356,-0.711c0.663,-0.55 2.878,-1.564 4.919,-2.282c3.369,-1.184 4.405,-1.094 11.291,0.919c7.924,2.317 12.36,2.791 13.188,1.452c1.001,-1.621 6.108,0.131 8.831,3.023c3.22,3.419 9.637,13.605 13.839,21.959c1.574,3.13 3.4,6.757 4.06,8.061c0.95,1.874 2.05,2.429 5.245,2.667c2.223,0.165 4.961,-0.174 6.076,-0.771c1.735,-0.928 2.781,-0.589 7.349,2.519c6.857,4.667 7.278,5.845 3.349,9.098c-5.965,4.939 -6.461,5.458 -6.461,6.875c0,1.945 2.676,1.773 6.757,-0.414c2.401,-1.287 4.51,-1.657 7.142,-1.304c2.727,0.365 4.086,0.073 5.008,-1.038c0.694,-0.836 2.069,-1.511 3.082,-1.511c1.014,0 2.732,-0.469 3.794,-1.037c2.887,-1.546 6.936,2.777 11.35,12.091c4.094,8.64 4.215,9.329 2.311,13.217c-2.869,5.861 -2.293,8.389 2.608,11.261c2.263,1.326 4.716,2.396 5.453,2.401c0.736,0.004 5.025,3.418 9.542,7.586c4.517,4.168 8.998,7.587 9.957,7.587c0.96,-0.001 2.96,-1.494 4.416,-3.32c4.646,-5.823 10.27,-3.718 15.203,5.69c2.694,5.138 3.262,7.426 4.119,16.122c0.588,5.974 4.463,14.571 9.809,21.811c3.425,4.638 5.66,11.642 5.66,17.662c0,5.423 2.947,18.251 5.186,22.582c0.888,1.716 2.44,3.324 3.438,3.586c2.391,0.625 2.469,7 0.148,11.646c-1.62,3.243 -1.758,3.311 -6.638,2.993c-4.313,-0.281 -5.643,0.091 -9.75,2.727c-4.061,2.606 -6.608,5.254 -6.608,6.904c0,0.235 0.817,0.631 1.807,0.889c0.99,0.259 2.457,1.491 3.26,2.727c1.27,1.955 1.301,2.947 0.208,7.616c-1.845,7.872 -5.862,14.703 -9.335,15.914c-3.721,1.297 -4.475,1.25 -4.475,-0.237c0,-0.675 -1.644,-1.651 -3.675,-2.193c-3.528,-0.942 -4.342,-0.689 -17.84,6.045l-14.106,7.053l-3.764,-1.57c-2.064,-0.868 -5.994,-1.567 -8.742,-1.571c-4.275,-0.007 -5.687,0.493 -9.78,3.497c-8.47,6.218 -24.598,9.17 -38.673,7.112c-7.516,-1.099 -7.79,-1.06 -11.824,1.304c-6.583,3.858 -10.482,3.346 -22.078,-2.874c-7.924,-4.251 -9.868,-5.673 -9.868,-7.35c0,-1.147 -0.616,-2.963 -1.364,-4.03c-1.28,-1.828 -1.755,-1.878 -8.505,-0.919c-5.756,0.818 -7.67,1.5 -9.75,3.586c-2.028,2.035 -2.354,2.861 -1.452,3.764c0.633,0.633 1.156,1.49 1.156,1.896c0,0.981 -7.101,4.564 -9.039,4.564c-0.837,0 -3.539,-2.081 -6.015,-4.623l-4.505,-4.623l-5.779,3.438c-3.19,1.89 -6.641,4.504 -7.645,5.808c-2.466,3.201 -4.381,9.292 -4.09,12.95c0.155,1.951 -0.289,3.302 -1.274,3.853c-1.324,0.741 -1.368,1.484 -0.356,5.868c0.993,4.3 1.961,5.747 6.875,10.194l5.72,5.186l8.327,-0.652c7.924,-0.62 8.506,-0.55 11.884,1.778c1.951,1.345 5.447,2.865 7.794,3.379c3.321,0.726 5.213,1.986 8.534,5.66c3.97,4.391 15.858,11.528 19.204,11.528c0.678,0 3.019,1.875 5.186,4.178c2.225,2.364 6.589,5.463 10.046,7.113c5.657,2.699 6.676,2.894 13.128,2.37c6.313,-0.512 7.372,-0.347 11.232,1.838c5.869,3.322 11.113,8.649 14.61,14.847c2.746,4.867 3.567,5.51 12.298,9.868c8.544,4.265 9.653,4.612 12.832,3.764c4.14,-1.105 12.368,0.613 13.839,2.904c1.197,1.862 5.104,1.926 5.809,0.089c0.294,-0.766 -0.175,-3.255 -1.037,-5.512c-1.477,-3.868 -1.465,-4.377 0.177,-8.802c1.395,-3.756 2.74,-5.344 6.698,-8.001c4.945,-3.321 4.946,-3.33 4.712,-8.061c-0.192,-3.87 -0.561,-4.803 -2.104,-5.097c-4.086,-0.778 -10.806,-14.74 -11.054,-22.997c-0.154,-5.143 0.088,-5.965 2.282,-7.794c2.652,-2.21 5.423,-10.162 5.423,-15.558c0,-3.406 3.668,-9.468 12.891,-21.337c3.191,-4.106 5.744,-8.691 7.112,-12.802c1.173,-3.522 2.307,-5.761 2.519,-4.979c0.213,0.783 0.836,2.351 1.393,3.497c0.582,1.197 0.791,4.751 0.504,8.328c-0.469,5.837 -0.314,6.386 2.163,9.038c1.454,1.557 3.209,2.872 3.912,2.904c17.155,0.787 20.329,0.668 21.96,-0.8c2.333,-2.1 4.188,-6.49 4.889,-11.587c0.817,-5.94 10.313,-17.502 15.114,-18.403c1.935,-0.363 4.8,-2.142 7.112,-4.386c3.79,-3.678 3.893,-3.912 3.882,-10.165c-0.006,-3.521 -0.61,-8.636 -1.333,-11.35c-1.909,-7.171 0.226,-11.135 8.772,-16.299c8.689,-5.25 14.082,-6.81 19.055,-5.482c2.124,0.567 3.852,1.364 3.852,1.778c0,0.414 0.624,0.77 1.393,0.77c3.563,0 5.681,-10.89 2.845,-14.639c-1.723,-2.279 -1.906,-16.603 -0.296,-22.997c1.03,-4.092 0.963,-4.453 -1.185,-6.105c-1.253,-0.963 -3.776,-2.431 -5.601,-3.289c-1.826,-0.859 -6.581,-4.077 -10.58,-7.142c-6.177,-4.734 -7.86,-5.571 -11.202,-5.571c-2.164,0 -4.772,-0.439 -5.779,-0.978c-1.984,-1.062 -5.63,-7.49 -5.63,-9.928c0,-0.828 1.729,-4.632 3.822,-8.446c3.116,-5.676 3.757,-7.759 3.616,-11.498c-0.152,-4.025 0.189,-4.874 2.726,-7.024c2.947,-2.496 5.957,-7.461 5.957,-9.809c0,-0.722 1.707,-3.749 3.793,-6.727c2.086,-2.978 3.793,-5.721 3.793,-6.105c0,-1.197 6.956,-7.924 8.98,-8.683c1.059,-0.397 4.757,-0.323 8.209,0.178l6.282,0.919l-2.282,2.43c-1.248,1.347 -2.124,2.874 -1.956,3.378c0.168,0.504 3.705,2.871 7.854,5.275c6.685,3.875 8.12,4.379 12.743,4.238c7.202,-0.22 18.901,1.477 21.396,3.112c3.242,2.124 8.331,14.03 7.794,18.225c-0.245,1.909 0.044,4.65 0.652,6.105c1.534,3.671 9.62,10.153 12.713,10.194c1.378,0.019 3.556,0.648 4.86,1.393c1.304,0.745 3.331,1.374 4.505,1.393c1.98,0.031 2.133,-0.38 2.133,-5.69c0,-6.49 1.479,-10.735 5.097,-14.64c3.303,-3.563 3.15,-6.408 -0.74,-14.847c-3.375,-7.319 -7.272,-11.654 -19.53,-21.663c-4.643,-3.791 -6.426,-5.953 -7.26,-8.771c-1.321,-4.462 -2.774,-5.651 -10.224,-8.387c-3.109,-1.142 -9.729,-3.976 -14.699,-6.283c-7.564,-3.51 -10.343,-5.483 -17.099,-12.061c-8.678,-8.448 -11.23,-9.885 -30.376,-17.307c-17.528,-6.794 -21.548,-8.621 -35.562,-16.091c-7.302,-3.893 -14.212,-7.319 -15.38,-7.617c-1.168,-0.297 -3.44,-2.032 -5.038,-3.852c-2.4,-2.734 -2.845,-3.964 -2.608,-7.172c0.273,-3.692 0.547,-4.038 5.838,-6.727c3.06,-1.554 7.007,-4.287 8.772,-6.104c3.696,-3.806 4.083,-7.037 1.6,-13.04c-2.108,-5.098 -5.649,-6.266 -15.469,-5.127c-12.688,1.473 -43.454,2.248 -45.756,1.156c-1.163,-0.551 -3.469,-1.512 -5.127,-2.134c-1.657,-0.621 -3.236,-1.69 -3.497,-2.37c-0.261,-0.681 -2.736,-1.987 -5.512,-2.905c-9.113,-3.013 -14.076,-7.09 -14.076,-11.587c0,-1.74 -2.211,-3.325 -6.164,-4.415c-1.051,-0.29 -8.362,-6.824 -16.24,-14.521c-15.538,-15.181 -19.938,-21.385 -24.064,-33.902c-1.203,-3.651 -2.982,-8.64 -3.941,-11.084c-0.959,-2.444 -1.748,-5.959 -1.748,-7.794c0,-3.225 -5.107,-18.048 -11.854,-34.346c-1.798,-4.343 -3.06,-8.472 -2.786,-9.187c0.579,-1.51 -4.928,-7.247 -7.112,-7.409c-2.614,-0.193 -3.295,-0.397 -6.935,-2.015c-4.04,-1.797 -10.323,-6.747 -20.359,-16.092c-9.687,-9.02 -14.011,-11.933 -18.818,-12.654c-3.728,-0.559 -5.085,-1.571 -12.417,-9.275c-4.525,-4.755 -9.094,-10.128 -10.165,-11.943c-4.825,-8.178 -9.926,-37.865 -8.031,-46.705c1.079,-5.031 1.672,-5.495 3.438,-2.667c0.651,1.043 2.043,1.897 3.082,1.897c1.472,0 1.914,-0.68 2.015,-3.082c0.097,-2.323 0.218,-2.538 0.534,-0.889c0.628,3.289 2.36,2.081 5.304,-3.675c3.126,-6.111 3.151,-10.705 0.089,-11.143c-2.832,-0.404 -7.79,-5.879 -14.995,-16.565l-6.253,-9.276l3.793,-7.527c3.391,-6.744 4.463,-8 10.076,-11.765c5.446,-3.654 6.587,-4.088 8.535,-3.201c1.685,0.768 2.002,1.339 1.244,2.252c-0.555,0.67 -1.57,1.003 -2.252,0.741c-2.28,-0.875 -12.861,11.24 -12.861,14.729c0,2.104 1.603,0.944 3.141,-2.282c0.871,-1.826 2.289,-3.319 3.141,-3.319c0.852,0 6.071,-2.423 11.617,-5.394c20.575,-11.02 25.989,-13.572 28.805,-13.572c2.867,0 2.883,-0.039 2.312,-4.209c-0.45,-3.283 -0.203,-4.657 1.185,-6.371l1.778,-2.193l6.431,1.719c3.538,0.942 7.29,2.296 8.327,3.022c1.696,1.188 1.722,1.38 0.297,1.927c-2.03,0.778 -2.076,3.26 -0.06,3.26c0.842,0 3.189,-0.936 5.216,-2.075c2.865,-1.61 3.675,-2.656 3.675,-4.653c0,-1.412 0.617,-2.795 1.363,-3.082c2.076,-0.796 8.655,4.479 11.38,9.128c3.003,5.125 3.003,5.423 0.059,5.423c-1.475,0 -2.371,0.538 -2.371,1.423c0,2.418 9.304,1.911 12.032,-0.652c2.241,-2.106 2.857,-4.146 1.393,-4.712c-0.45,-0.174 -2.127,-2.428 -3.705,-4.979c-2.41,-3.898 -3.819,-5.021 -8.89,-7.172c-4.559,-1.933 -6.274,-3.208 -6.964,-5.156c-0.682,-1.925 -0.571,-2.788 0.385,-3.378c0.704,-0.436 1.493,-2.968 1.748,-5.631c0.425,-4.414 0.277,-4.83 -1.511,-4.83c-1.079,0 -2.226,0.426 -2.549,0.948c-0.898,1.453 -3.027,1.124 -3.674,-0.563c-0.783,-2.041 1.824,-6.262 5.275,-8.505c4.319,-2.808 6.389,-9.884 2.904,-9.928c-0.913,-0.011 -3.532,-0.88 -5.838,-1.926c-2.872,-1.303 -4.518,-1.587 -5.186,-0.919c-1.549,1.549 -2.223,1.167 -3.26,-1.808c-0.903,-2.591 -0.663,-3.073 3.467,-6.934c2.439,-2.279 6.663,-5.4 9.395,-6.935c4.614,-2.592 6.875,-5.672 6.875,-9.364c0,-1.715 -11.494,-4.346 -21.574,-4.92c-9.493,-0.54 -30.168,-4.31 -34.377,-6.282c-1.304,-0.611 -3.437,-1.25 -4.741,-1.393c-17.231,-1.89 -19.851,-3.092 -23.738,-10.876c-2.944,-5.898 -7.095,-11.202 -8.742,-11.202c-1.409,0 -3.147,-2.204 -4.267,-5.423c-1.122,-3.224 -1.036,-3.405 3.082,-5.512c2.263,-1.158 3.113,-5.928 1.185,-6.668c-0.045,-0.017 -0.119,-0.001 -0.207,0Zm15.765,274.714c0.183,-0.009 0.324,0.027 0.445,0.148c0.32,0.321 0.333,1.665 0,2.993c-0.653,2.604 -2.901,3.268 -3.734,1.097c-0.48,-1.251 2.01,-4.176 3.289,-4.238Z" style="fill-rule:nonzero;"/><path id="path2894" d="M329.022,857.74c-2.592,-3.64 -1.617,-6.092 2.423,-6.092c3.472,0 7.085,4.484 5.566,6.909c-1.835,2.932 -5.593,2.548 -7.989,-0.817Z" style="fill-rule:nonzero;"/><path id="path2890" d="M350.278,769.144c-0.862,-2.246 1.024,-3.657 3.919,-2.931c1.686,0.424 2.402,1.159 2.195,2.254c-0.421,2.217 -5.315,2.759 -6.114,0.677Z" style="fill-rule:nonzero;"/><path id="path2888" d="M334.763,764.933c0,-2.367 1.862,-3.532 2.936,-1.837c1.383,2.183 0.96,3.678 -1.04,3.678c-1.245,0 -1.896,-0.632 -1.896,-1.841Z" style="fill-rule:nonzero;"/><path id="path2886" d="M514.042,732.251c-0.671,-1.254 -0.94,-2.734 -0.598,-3.288c0.343,-0.554 -0.247,-1.551 -1.31,-2.215c-2.262,-1.413 -2.509,-3.835 -0.557,-5.455c2.513,-2.085 4.775,-0.788 4.92,2.821c0.073,1.817 0.606,4.506 1.185,5.975c1.449,3.672 1.33,4.442 -0.683,4.442c-0.955,0 -2.286,-1.026 -2.957,-2.28Z" style="fill-rule:nonzero;"/><path id="path2882" d="M505.96,719.97c-2.338,-1.71 -1.246,-4.405 1.784,-4.405c2.817,0 3.492,0.883 2.774,3.629c-0.619,2.368 -2.047,2.611 -4.558,0.776Z" style="fill-rule:nonzero;"/><path id="path2880" d="M403.041,707.538c0,-0.764 0.86,-1.85 1.911,-2.412c1.493,-0.799 2.029,-0.713 2.455,0.395c0.299,0.78 0.267,1.866 -0.07,2.412c-0.928,1.501 -4.296,1.191 -4.296,-0.395Z" style="fill-rule:nonzero;"/><path id="path2878" d="M528.699,701.351c-0.805,-1.302 1.182,-3.804 3.02,-3.804c1.929,0 1.191,4.167 -0.804,4.547c-0.865,0.165 -1.861,-0.169 -2.216,-0.743Z" style="fill-rule:nonzero;"/><path id="path2876" d="M134.773,692.43c-1.693,-0.938 -2.934,-1.004 -4.903,-0.261c-3.439,1.298 -4.785,0.158 -7.662,-6.489c-2.726,-6.298 -4.792,-6.753 -6.393,-1.409c-1.921,6.409 -5.327,4.113 -8.161,-5.499c-0.808,-2.739 0.926,-4.933 3.897,-4.933c2.833,0 2.819,-0.503 -0.116,-4.351c-2.864,-3.755 -2.907,-4.353 -0.474,-6.554c2.325,-2.104 2.448,-4.813 0.274,-6.03c-2.054,-1.149 -1.831,-5.579 0.743,-14.754c1.44,-5.133 1.737,-8.14 1.26,-12.75c-0.478,-4.62 -0.318,-6.227 0.683,-6.861c1.934,-1.225 2.73,-1.037 2.73,0.645c0,0.825 0.532,1.324 1.182,1.107c1.417,-0.472 2.667,-6.936 1.939,-10.031c-0.484,-2.062 -0.828,-2.163 -5.275,-1.551l-4.757,0.654l0.612,-4.613c0.336,-2.537 1.465,-6.858 2.507,-9.601c2.954,-7.775 2.604,-17.36 -0.962,-26.337c-5.23,-13.165 -7.162,-16.288 -10.366,-16.758c-2.207,-0.324 -3.007,-0.007 -3.441,1.361c-0.312,0.981 -1.064,1.619 -1.671,1.419c-1.496,-0.492 -1.988,-4.453 -0.711,-5.729c1.254,-1.255 1.354,-5.624 0.156,-6.861c-0.532,-0.55 -0.292,-3.859 0.615,-8.487c2.138,-10.904 3.525,-12.2 7.124,-6.659c2.437,3.753 5.788,5.236 11.829,5.236c4.741,0 7.244,-1.089 10.128,-4.406c1.22,-1.404 3.471,-2.517 5.79,-2.864c3.622,-0.542 8.06,-3.465 8.06,-5.309c0,-2.022 9.142,-11.341 13.398,-13.657c3.306,-1.8 4.62,-3.092 4.62,-4.545c0,-2.506 1.697,-4.307 4.059,-4.307c0.981,0 6.349,2.336 11.928,5.19c9.81,5.017 10.23,5.362 12.726,10.452c3.199,6.522 3.197,7.017 -0.026,9.656c-2.037,1.668 -2.249,2.143 -0.968,2.169c2.737,0.057 10.214,16.809 10.214,22.885c0,2.41 0.764,4.465 2.371,6.374c1.303,1.55 2.37,3.529 2.37,4.399c0,3.311 -3.16,11.049 -4.89,11.975c-3.117,1.668 -7.438,8.508 -7.438,11.774c0,1.802 1.149,4.729 2.828,7.207c3.325,4.908 3.618,9.065 1.44,20.448c-0.782,4.088 -1.423,11.219 -1.423,15.846c0,5.99 -0.845,12.136 -2.935,21.337c-1.615,7.108 -3.055,15 -3.202,17.537c-0.296,5.151 -1.361,6.257 -6.045,6.278c-2.333,0.011 -4.251,-0.933 -7.235,-3.56c-3.377,-2.973 -5.398,-3.852 -12,-5.22c-4.366,-0.905 -8.258,-1.644 -8.649,-1.641c-1.036,0.006 -0.87,6.757 0.3,12.211c1.226,5.719 0.072,8.496 -5.694,13.706c-4.074,3.68 -6.671,4.221 -10.386,2.161Z" style="fill:#fff;fill-rule:nonzero;"/><path id="path2872" d="M101.113,674.347c-2.123,-3.239 -1.952,-3.897 1.366,-5.271c3.813,-1.58 5.134,-0.281 4.29,4.218c-0.767,4.092 -3.35,4.573 -5.656,1.053Z" style="fill-rule:nonzero;"/><path id="path2868" d="M467.526,559.738c0,-0.81 1.189,-1.552 2.884,-1.801c2.252,-0.33 2.822,-0.094 2.6,1.078c-0.373,1.97 -5.484,2.644 -5.484,0.723Z" style="fill-rule:nonzero;"/><path id="path2866" d="M446.853,547.524c-1.526,-1.526 -1.434,-3.172 0.274,-4.88c2.753,-2.753 9.61,1.812 7.602,5.061c-0.822,1.331 -6.494,1.201 -7.876,-0.181Z" style="fill-rule:nonzero;"/><path id="path2862" d="M390.292,532.626c-0.786,-1.27 0.349,-3.648 2.053,-4.302c2.026,-0.777 2.361,-0.227 1.63,2.682c-0.611,2.436 -2.63,3.324 -3.683,1.62Z" style="fill-rule:nonzero;"/><path id="path2860" d="M99.99,522.505c0.711,-2.831 4.692,-9.402 6.297,-10.395c1.441,-0.891 2.745,1.282 2.763,4.606c0.011,2.072 -0.376,2.601 -1.737,2.371c-2.263,-0.384 -4.887,1.81 -4.887,4.087c0,1.004 -0.665,1.78 -1.525,1.78c-1.167,0 -1.381,-0.576 -0.911,-2.449Z" style="fill-rule:nonzero;"/><path id="path2856" d="M226.655,413.155c0,-1.866 2.377,-3.348 3.879,-2.419c0.474,0.293 0.863,1.361 0.863,2.373c0,1.332 -0.657,1.841 -2.371,1.841c-1.694,0 -2.371,-0.512 -2.371,-1.795Z" style="fill-rule:nonzero;"/><path id="path2854" d="M263.752,412.699c-1.929,-2.053 -1.983,-2.382 -0.612,-3.752c1.931,-1.932 3.961,-1.135 4.71,1.848c1.113,4.435 -0.859,5.352 -4.098,1.904Z" style="fill-rule:nonzero;"/><path id="path2852" d="M213.393,392.902c0.025,-2.002 1.612,-3.835 2.725,-3.148c1.851,1.145 1.231,4.333 -0.843,4.333c-1.043,0 -1.89,-0.533 -1.882,-1.185Z" style="fill-rule:nonzero;"/><path id="path2850" d="M233.198,380.285c-2.382,-2.383 -2.491,-2.399 -6.616,-0.962c-7.486,2.607 -11.307,1.408 -11.307,-3.547c0,-2.267 5.525,-4.407 8.605,-3.334c4.357,1.519 7.82,0.637 9.247,-2.354c2.124,-4.452 4.382,-2.974 4.727,3.095c0.311,5.468 -0.336,9.524 -1.518,9.524c-0.393,0 -1.805,-1.09 -3.138,-2.422Z" style="fill-rule:nonzero;"/><path id="path2846" d="M196.878,356.534c-0.667,-1.739 1.262,-6.228 2.907,-6.763c1.7,-0.552 2.406,3.029 1.143,5.801c-1.272,2.79 -3.175,3.242 -4.05,0.962Z" style="fill-rule:nonzero;"/></g></g><g id="layer4"><path id="VA" d="M61.759,101.27c-5.314,1.354 -9.802,6.954 -15.825,5.334c-5.442,2.572 -11.99,4.529 -17.633,1.63c-2.721,1.465 -4.626,4.26 -8.238,3.793c-3.934,0.437 -7.611,4.156 -5.246,8.239c2.785,7.395 10.431,12.128 11.943,20.122c1.743,2.852 6.421,3.213 7.201,-0.83c2.369,1.082 2.181,5.512 5.364,2.786c6.319,-1.545 12.173,-4.758 17.485,-8.091c7.048,-1.133 14.792,4.075 21.011,-1.274c4.677,-3.889 1.782,-10.284 0.267,-14.995c-0.883,-4.695 -0.147,-11.463 -6.076,-12.743c-3.757,-0.636 -6.388,-4.346 -10.253,-3.971Z" style="fill:#fff;fill-rule:nonzero;"/><path id="PI" d="M74.352,259.345c0.758,0.629 3.199,1.311 5.424,1.514c3.16,0.29 4.319,-0.02 5.295,-1.414c0.688,-0.982 2.202,-1.921 3.364,-2.087c1.941,-0.277 2.104,-0.783 2.002,-6.194c-0.099,-5.224 0.144,-6.06 2.145,-7.371c1.242,-0.814 2.258,-2.313 2.258,-3.332c0,-1.019 1.088,-2.567 2.419,-3.439c1.692,-1.108 2.12,-1.885 1.423,-2.582c-1.419,-1.418 -1.248,-2.566 0.908,-6.101l1.898,-3.113l3.501,2.379c3.053,2.075 3.692,2.207 4.989,1.033c0.835,-0.755 3.977,-1.473 7.162,-1.637c4.019,-0.206 5.602,-0.648 5.425,-1.515c-0.137,-0.673 0.203,-2.07 0.756,-3.104c1.598,-2.984 7.36,-1.98 9.899,1.725l1.985,2.896l2.116,-2.376c1.225,-1.375 2.71,-2.149 3.526,-1.836c1.687,0.648 1.818,-0.665 0.308,-3.084c-0.895,-1.433 -0.706,-2.314 1.013,-4.728c1.162,-1.632 2.434,-2.968 2.826,-2.968c0.392,0 2.147,1.281 3.899,2.845c1.753,1.565 3.735,2.845 4.405,2.845c0.67,0 1.689,0.879 2.264,1.954c1.93,3.607 3.896,1.818 4.196,-3.818c0.152,-2.85 -0.051,-5.837 -0.451,-6.638c-0.399,-0.8 -1.176,-2.598 -1.725,-3.995c-0.696,-1.767 -1.808,-2.633 -3.659,-2.845c-2.014,-0.231 -2.736,-0.88 -2.976,-2.676c-0.175,-1.304 -1.307,-3.437 -2.516,-4.741c-1.209,-1.304 -2.351,-3.225 -2.537,-4.268c-0.198,-1.105 -1.226,-2.023 -2.465,-2.2c-2.277,-0.324 -4.479,-3.4 -3.532,-4.932c0.953,-1.543 -1.109,-1.041 -2.473,0.602c-0.987,1.19 -2.315,1.406 -5.97,0.973c-5.051,-0.598 -6.474,-1.466 -6.767,-4.129c-0.289,-2.629 -1.617,-5.383 -3.147,-6.531c-0.766,-0.574 -1.478,-1.854 -1.584,-2.844c-0.106,-0.991 -0.676,-2.994 -1.267,-4.451c-1.942,-4.788 -2.012,-6.791 -0.352,-10.153c1.288,-2.609 2.286,-3.382 4.664,-3.612c2.591,-0.251 3.266,0.158 4.691,2.845c1.27,2.393 1.75,2.744 2.02,1.478c0.195,-0.912 0.75,-1.659 1.233,-1.659c0.483,0 0.879,-0.839 0.879,-1.863c0,-1.025 0.853,-2.32 1.896,-2.879c2.729,-1.46 2.337,-4.446 -0.981,-7.477c-1.899,-1.735 -3.073,-3.894 -3.451,-6.348c-0.315,-2.045 -0.884,-4.145 -1.265,-4.667c-0.382,-0.521 -0.976,-2.518 -1.321,-4.436c-0.346,-1.919 -1.895,-4.844 -3.443,-6.502c-3.177,-3.401 -3.401,-4.51 -1.439,-7.135c0.907,-1.214 1.193,-3.028 0.839,-5.322c-0.486,-3.152 -0.124,-3.921 3.84,-8.158c3.205,-3.427 4.377,-5.446 4.377,-7.544c0,-2.463 -0.425,-2.951 -3.025,-3.47c-2.088,-0.418 -4.873,-2.585 -8.992,-6.994c-4.983,-5.336 -5.97,-6.944 -5.984,-9.756c-0.01,-1.851 0.435,-3.819 0.988,-4.372c0.553,-0.553 0.873,-3.088 0.711,-5.634c-0.319,-5.028 -2.311,-6.556 -5.017,-3.851c-0.774,0.774 -1.759,1.552 -2.19,1.729c-1.84,0.756 -9.682,16.894 -9.682,19.924c0,2.05 -1.439,5.622 -4.03,10.004c-3.937,6.658 -6.442,8.8 -10.288,8.8c-3.02,0 -4.747,5.354 -4.039,12.513c0.326,3.289 1.142,6.62 1.814,7.402c0.747,0.87 1.158,3.604 1.058,7.036l-0.163,5.614l-5.197,2.684c-5.51,2.846 -9.335,3.347 -12.524,1.641c-3.751,-2.008 -8.322,-1.259 -11.578,1.896c-1.669,1.617 -4.015,2.94 -5.216,2.94c-1.2,0 -3.633,0.689 -5.407,1.53c-1.773,0.842 -4.505,1.343 -6.07,1.113c-3.242,-0.476 -3.495,0.227 -1.292,3.589c1.196,1.825 1.421,3.643 0.978,7.889c-0.948,9.063 -1.578,9.94 -10.268,14.29c-6.473,3.239 -8.458,3.826 -11.316,3.343c-3.75,-0.633 -10.345,1.501 -10.345,3.348c0,0.582 1.435,4.165 3.189,7.961c3.827,8.283 8.131,12.13 13.189,11.79c1.871,-0.126 4.38,0.484 5.79,1.408c2.15,1.409 2.488,2.291 2.488,6.497c0,3.629 -0.563,5.614 -2.213,7.802c-1.217,1.614 -3.742,5.708 -5.611,9.098l-3.398,6.164l1.175,6.717c0.798,4.57 2.005,7.806 3.772,10.124c2.996,3.928 3.783,4.486 15.554,11.021c10.011,5.559 12.407,5.863 20.44,2.591c5.878,-2.395 9.405,-2.296 8.987,0.251c-0.139,0.847 0.102,2.105 0.535,2.796c0.619,0.987 1.269,0.804 3.031,-0.851c1.803,-1.693 2.514,-1.882 3.622,-0.962Z" style="fill:#c7c7c7;fill-rule:nonzero;"/><path id="LO" d="M166.53,208.852c-0.449,-2.394 -0.131,-3.692 1.317,-5.361c2.414,-2.783 2.418,-4.417 0.013,-5.704c-2.041,-1.093 -2.452,-3.765 -0.986,-6.414c0.502,-0.906 2.038,-4.125 3.414,-7.153c2.273,-5.003 2.985,-5.721 7.791,-7.846c3.696,-1.634 5.488,-2.017 5.949,-1.271c0.489,0.791 1.184,0.788 2.677,-0.011c1.724,-0.923 2.018,-0.821 2.018,0.698c0,0.978 1.066,2.264 2.37,2.858c1.902,0.866 2.371,0.823 2.371,-0.221c0,-1.592 2.57,-2.716 3.345,-1.462c0.939,1.52 4.263,1.011 4.913,-0.752c1.095,-2.966 4.07,-4.155 4.07,-1.627c0,1.167 0.38,1.253 1.916,0.431c2.454,-1.313 3.447,-0.652 5.467,3.639c1.607,3.411 1.755,3.485 7.162,3.55c3.037,0.037 5.807,0.511 6.157,1.053c1.033,1.604 6.191,3.792 7.982,3.386c1.093,-0.248 1.965,0.436 2.565,2.013c0.634,1.667 2.111,2.749 4.89,3.582c3.974,1.19 3.988,1.186 7.019,-2.32c3.497,-4.046 7.874,-4.869 8.718,-1.64c0.32,1.221 1.613,2.084 3.715,2.478c1.774,0.333 3.472,1.004 3.773,1.491c0.305,0.494 1.925,0.072 3.665,-0.955c4.808,-2.837 8.742,-3.406 11.419,-1.652c2.841,1.862 3.179,1.862 7.618,0.007l3.589,-1.499l-3.645,-3.242c-2.004,-1.784 -3.994,-3.243 -4.421,-3.243c-0.426,0 -0.776,-1.112 -0.776,-2.472c0,-1.997 -0.319,-2.334 -1.659,-1.752c-3.384,1.469 -6.373,0.969 -7.337,-1.228c-0.515,-1.174 -1.525,-2.134 -2.245,-2.134c-0.853,0 -1.131,-0.678 -0.798,-1.949c0.377,-1.444 -0.085,-2.175 -1.786,-2.821c-1.263,-0.48 -2.296,-1.31 -2.296,-1.845c0,-0.534 -0.602,-0.972 -1.338,-0.972c-0.736,0 -2.393,-1.253 -3.682,-2.785c-1.689,-2.007 -2.904,-2.639 -4.352,-2.26c-1.159,0.303 -2.008,0.078 -2.008,-0.534c0,-0.582 -0.64,-1.059 -1.422,-1.059c-1.07,0 -1.423,-1.147 -1.423,-4.631c0,-3.923 -0.307,-4.711 -2.013,-5.157c-1.696,-0.444 -1.926,-1.021 -1.465,-3.667c0.301,-1.727 0.167,-5.061 -0.298,-7.408c-0.818,-4.128 -0.673,-4.546 4.445,-12.802c2.91,-4.694 5.88,-9.495 6.601,-10.668c1.283,-2.092 1.224,-2.134 -2.98,-2.134c-3.007,0 -4.29,0.39 -4.29,1.304c0,1.209 -3.847,2.489 -7.481,2.489c-2.029,0 -4.657,-6.116 -4.657,-10.839c0,-2.386 -0.533,-3.977 -1.517,-4.527c-1.911,-1.07 -1.961,-3.948 -0.095,-5.497c0.782,-0.649 1.422,-1.915 1.422,-2.814c0,-0.898 0.815,-2.37 1.81,-3.271c3.048,-2.759 4.018,-17.696 1.341,-20.654c-1.819,-2.01 -0.465,-4.263 2.845,-4.736c1.653,-0.236 2.024,-0.862 1.86,-3.139c-0.238,-3.305 -3.279,-6.163 -6.559,-6.163c-1.518,0 -2.648,-0.796 -3.366,-2.371c-0.812,-1.783 -1.806,-2.371 -4.01,-2.372c-4.621,-0.003 -9.612,-2.919 -9.342,-5.46c0.449,-4.226 -5.924,-1.176 -9.008,4.312c-2.067,3.677 -2.869,8.736 -1.386,8.736c0.405,0 2.062,1.21 3.682,2.69c2.462,2.248 3.057,3.657 3.629,8.587c0.81,6.978 -0.716,9.593 -5.587,9.574c-2.319,-0.009 -3.398,-0.725 -5.135,-3.406c-1.21,-1.867 -2.235,-4.638 -2.278,-6.156c-0.043,-1.519 -0.587,-3.184 -1.208,-3.699c-1.735,-1.44 -9.329,1.535 -12.229,4.789c-1.96,2.2 -3.284,2.794 -6.23,2.794c-2.058,0 -4.812,-0.488 -6.121,-1.084c-3.469,-1.581 -7.193,-7.706 -7.193,-11.831c0,-3.988 -1.966,-5.976 -5.957,-6.021c-3.315,-0.038 -4.903,3.271 -2.93,6.107c2.09,3.005 1.514,8.547 -1.602,15.428c-1.983,4.38 -3.86,7.014 -5.927,8.317c-2.011,1.268 -4.21,4.286 -6.564,9.009l-3.54,7.102l2.829,2.439c3.199,2.76 3.47,4.475 1.352,8.569c-1.237,2.394 -1.959,2.807 -4.474,2.561c-3.129,-0.306 -4.834,-2.503 -5.856,-7.545c-0.314,-1.551 -1.775,-3.257 -3.82,-4.464c-3.42,-2.018 -3.519,-2.644 -1.187,-7.506c1.146,-2.389 0.472,-3.435 -2.864,-4.443c-1.977,-0.597 -2.134,-0.352 -2.134,3.351c0,3.434 -0.606,4.644 -4.309,8.603c-3.858,4.125 -4.247,4.944 -3.707,7.823c0.416,2.215 0.123,3.949 -0.943,5.575c-1.484,2.265 -1.439,2.471 1.099,5.078c3.528,3.626 4.699,6.311 5.862,13.446c0.772,4.737 1.577,6.547 3.858,8.678c1.585,1.481 2.882,3.588 2.882,4.682c0,1.095 0.462,1.991 1.027,1.991c1.92,0 0.266,2.315 -2.043,2.861c-1.341,0.316 -2.299,1.229 -2.301,2.191c-0.001,0.907 -0.46,1.955 -1.02,2.329c-0.559,0.374 -1.293,1.426 -1.63,2.339c-0.943,2.558 -4.191,2.015 -5.606,-0.937c-1.83,-3.819 -4.231,-3.85 -5.79,-0.075c-1.109,2.685 -1.101,3.452 0.053,5.238c0.744,1.15 1.095,2.508 0.781,3.016c-0.315,0.509 -0.138,1.193 0.392,1.52c0.53,0.328 0.964,1.638 0.964,2.911c0,1.273 0.395,2.315 0.879,2.315c1.114,0 3.862,5.441 3.862,7.648c0,2.442 7.077,3.539 9.38,1.454c0.921,-0.834 2.602,-1.516 3.734,-1.516c1.656,0 2.059,0.557 2.059,2.845c0,2.107 0.443,2.845 1.707,2.845c2.124,0 3.983,1.782 3.983,3.817c0,0.848 1.067,2.544 2.371,3.769c1.304,1.225 2.371,3.192 2.371,4.37c0,1.626 0.622,2.215 2.578,2.443c2.447,0.285 2.954,0.913 5.976,7.412c0.364,0.782 1.255,1.423 1.98,1.423c0.726,0 1.661,0.533 2.078,1.185c1.335,2.087 1.84,1.276 1.231,-1.974Z" style="fill:#c7c7c7;fill-rule:nonzero;"/><path id="ER" d="M339.22,290.01c1.391,-3.221 2.528,-7.678 2.6,-10.194c0.045,-1.558 0.618,-1.852 3.209,-1.647c1.998,0.159 4.166,-0.47 5.918,-1.717c1.52,-1.083 3.728,-1.991 4.907,-2.019c1.178,-0.028 3.074,-0.485 4.212,-1.016c2.823,-1.317 5.043,-0.276 5.043,2.365c0,2.409 2.773,5.322 4.515,4.741c0.607,-0.202 1.38,0.729 1.716,2.07c0.713,2.838 2.354,3.127 4.412,0.779c1.885,-2.152 2.722,-7.824 1.154,-7.824c-1.519,0 -16.945,-16.248 -19.958,-21.021c-5.283,-8.368 -10.782,-38.922 -8.755,-48.641c0.548,-2.629 1.292,-5.1 1.653,-5.491c0.362,-0.391 0.483,-2.204 0.27,-4.03c-0.383,-3.276 -0.448,-3.32 -4.91,-3.32c-3.497,0 -4.817,-0.439 -5.823,-1.937c-1.029,-1.531 -2.492,-1.989 -6.991,-2.188c-6.51,-0.287 -12.833,0.825 -14.236,2.503c-1.735,2.076 -6.995,5.415 -8.531,5.415c-0.828,0 -2.53,-1.105 -3.783,-2.456c-1.857,-2.005 -2.808,-2.341 -5.164,-1.823c-2.032,0.446 -3.33,0.191 -4.384,-0.862c-1.588,-1.588 -6.102,-2.074 -6.102,-0.656c0,1.63 -8.053,2.142 -10.853,0.689c-2.854,-1.481 -3.491,-1.384 -9.977,1.518c-2.993,1.34 -4.67,1.623 -5.721,0.967c-0.818,-0.511 -2.816,-1.221 -4.441,-1.578c-1.781,-0.391 -3.146,-1.38 -3.436,-2.491c-0.702,-2.683 -2.756,-2.253 -4.927,1.033c-1.043,1.579 -2.874,3.122 -4.069,3.429c-3.272,0.841 -10.807,-1.562 -11.345,-3.619c-0.27,-1.033 -1.317,-1.737 -2.582,-1.737c-1.171,0 -3.788,-1.144 -5.817,-2.542c-2.831,-1.951 -4.876,-2.557 -8.798,-2.608c-5.243,-0.068 -5.161,-0.011 -7.739,-5.282c-0.749,-1.531 -4.957,-1.509 -5.485,0.028c-0.174,0.507 -1.134,0.921 -2.134,0.921c-0.999,0 -1.817,0.426 -1.817,0.948c0,1.464 -2.47,1.121 -3.843,-0.534c-1.116,-1.344 -1.308,-1.344 -2.06,0c-0.457,0.815 -1.364,1.482 -2.016,1.482c-1.708,0 -6.29,-2.242 -6.299,-3.082c-0.004,-0.391 -0.861,-0.711 -1.904,-0.711c-1.043,0 -1.896,0.435 -1.896,0.966c0,0.54 -1.728,0.853 -3.928,0.711c-3.713,-0.241 -4.036,-0.047 -5.926,3.552c-1.1,2.093 -2.793,5.648 -3.762,7.899c-1.75,4.066 -1.748,4.104 0.237,5.494c2.403,1.683 2.598,5.299 0.405,7.493c-1.081,1.081 -1.527,2.894 -1.386,5.63c0.209,4.028 0.201,4.038 -3.621,4.649c-2.107,0.337 -3.831,1.145 -3.831,1.796c0,1.546 3.592,3.772 4.84,3.001c0.534,-0.33 1.82,0.17 2.86,1.111c1.567,1.418 2.209,1.511 3.755,0.546c1.534,-0.958 1.963,-0.909 2.419,0.279c0.305,0.794 1.134,1.444 1.842,1.444c2.819,0 4.297,6.392 2.012,8.704c-0.681,0.689 -1.492,1.925 -1.803,2.746c-0.479,1.267 0.173,1.432 4.321,1.09c4.143,-0.342 5.25,-0.064 7.292,1.832c3.11,2.887 4.544,2.468 8.059,-2.358c1.584,-2.175 3.791,-4.086 4.906,-4.247c3.189,-0.462 9.917,3.37 9.573,5.453c-0.317,1.915 2.653,5.746 4.454,5.746c1.941,0 7.047,2.899 7.951,4.515c0.556,0.993 2.333,1.619 4.98,1.755c2.965,0.152 4.483,0.764 5.428,2.187c0.721,1.086 2.123,1.974 3.116,1.974c0.993,0 2.177,0.96 2.633,2.134c0.457,1.174 2.159,3.393 3.784,4.933l2.955,2.798l1.462,-2.087c1.908,-2.724 6.937,-2.829 9.195,-0.191c0.893,1.043 2.202,1.897 2.909,1.897c0.706,0 2.057,0.853 3.001,1.896c2.377,2.627 3.877,2.377 5.857,-0.975c1.815,-3.073 4.674,-3.421 4.424,-0.538c-0.129,1.498 0.321,1.643 3.32,1.066c1.908,-0.366 4.139,-0.661 4.959,-0.655c0.921,0.006 1.464,-0.776 1.422,-2.052c-0.054,-1.653 0.547,-2.121 3.033,-2.36c2.036,-0.196 3.626,-1.101 4.633,-2.638c0.843,-1.286 1.76,-2.111 2.038,-1.833c0.278,0.279 1.266,-0.182 2.195,-1.023c1.574,-1.424 1.906,-1.293 4.854,1.926c2.638,2.88 3.711,3.41 6.448,3.186c2.781,-0.227 3.33,0.059 3.587,1.866c0.271,1.909 0.685,2.074 3.912,1.558c2.151,-0.344 3.86,-0.17 4.231,0.432c0.741,1.198 -1.72,7.434 -3.871,9.811c-1.071,1.183 -1.232,2.031 -0.548,2.88c0.534,0.662 1.284,2.697 1.668,4.522c0.838,3.989 5.614,8.442 9.113,8.496c1.364,0.022 3.616,0.932 5.004,2.024c2.07,1.628 5.574,3.182 8.169,3.623c0.264,0.045 0.987,-1.092 1.607,-2.526Z" style="fill:#c7c7c7;fill-rule:nonzero;"/><path id="LI" d="M71.996,288.452c0.628,-0.757 2.931,-1.674 5.117,-2.039c6.975,-1.163 18.671,-7.929 18.68,-10.806c0.007,-2.297 6.491,-14.56 8.68,-16.417c1.076,-0.913 2.891,-1.66 4.033,-1.66c2.957,0 4.352,-1.778 4.352,-5.548c0,-2.637 0.809,-4.036 4.174,-7.215c4.718,-4.457 14.479,-9.996 17.613,-9.996c2.238,0 26.175,6.11 30.792,7.86c1.537,0.582 4.097,2.174 5.69,3.538c9.484,8.119 20.099,14.681 29.252,18.085c8.69,3.231 9.799,3.445 10.836,2.092c1.426,-1.864 0.746,-3.126 -1.686,-3.126c-1.208,0 -1.84,-0.651 -1.84,-1.896c0,-1.391 -0.632,-1.897 -2.371,-1.897c-1.304,0 -2.371,-0.427 -2.371,-0.948c0,-0.522 -0.64,-0.949 -1.422,-0.949c-0.973,0 -1.423,-0.975 -1.423,-3.084c0,-2.555 -0.75,-3.652 -4.377,-6.401c-2.408,-1.824 -5.075,-4.592 -5.927,-6.15c-2.752,-5.031 -6.393,-6.509 -10.552,-4.283c-2.949,1.579 -5.014,0.148 -4.378,-3.033c0.304,-1.52 1.199,-3.409 1.988,-4.198c2.788,-2.788 1.326,-5.822 -3.161,-6.558c-1.905,-0.313 -4.318,-0.929 -5.361,-1.369c-3.705,-1.565 -6.109,-1.694 -7.194,-0.388c-1.608,1.938 -5.41,1.617 -6.777,-0.572c-0.651,-1.043 -1.722,-1.896 -2.379,-1.896c-0.656,0 -1.973,-0.78 -2.926,-1.732c-2.329,-2.329 -4.877,-3.24 -5.022,-1.795c-0.063,0.636 -0.17,2.863 -0.237,4.949c-0.104,3.254 -0.449,3.84 -2.425,4.119c-1.267,0.179 -3.112,1.352 -4.099,2.608c-2.1,2.67 -4.49,2.998 -4.533,0.623c-0.045,-2.471 -2.012,-4.583 -4.948,-5.314c-2.282,-0.568 -2.608,-0.375 -2.608,1.55c0,3.428 -1.826,4.475 -7.806,4.475c-4.041,0 -5.677,0.383 -6.076,1.422c-0.745,1.942 -2.852,1.785 -6.526,-0.486c-2.665,-1.647 -3.164,-1.71 -3.643,-0.463c-0.304,0.794 -0.307,2.68 -0.005,4.191c0.448,2.24 0.094,3.045 -1.922,4.366c-1.359,0.891 -2.472,2.29 -2.472,3.109c0,0.819 -0.908,2.456 -2.018,3.637c-1.52,1.619 -1.993,3.269 -1.917,6.699c0.137,6.221 -0.524,7.871 -3.152,7.871c-1.794,0 -2.118,0.385 -1.692,2.011c0.506,1.936 0.28,1.995 -6.016,1.569c-3.598,-0.244 -7.289,-0.768 -8.201,-1.165c-1.284,-0.558 -1.66,-0.269 -1.66,1.277c0,1.099 -0.38,1.998 -0.845,1.998c-0.465,0 -1.492,1.6 -2.282,3.556c-0.79,1.956 -3.823,6.184 -6.741,9.395c-5.872,6.464 -5.633,5.976 -4.456,9.074c0.757,1.99 1.516,2.258 6.974,2.46c4.413,0.163 6.443,-0.159 7.266,-1.15Z" style="fill:#fff;fill-rule:nonzero;"/><g id="TOS"><path id="TO" d="M283.704,406.914c1.648,-2.095 2.321,-2.282 6.3,-1.747c2.451,0.33 5.409,1.217 6.575,1.972c1.963,1.271 2.184,1.2 3.008,-0.965c0.674,-1.774 1.82,-2.487 4.756,-2.956c4.287,-0.685 4.562,-1.101 2.347,-3.548c-2.059,-2.275 -0.591,-6.961 2.228,-7.109c4.101,-0.215 10.247,-6.709 9.268,-9.793c-0.377,-1.189 0.012,-2.158 1.125,-2.806c0.936,-0.545 1.272,-1.003 0.747,-1.019c-1.337,-0.04 -3.591,-5.451 -2.802,-6.727c0.358,-0.58 1.456,-0.843 2.44,-0.586c0.983,0.258 2.02,0.093 2.304,-0.366c0.283,-0.459 1.958,-1.519 3.722,-2.356c2.876,-1.364 3.156,-1.838 2.712,-4.575c-0.285,-1.757 0.148,-4.592 1.02,-6.68c1.933,-4.625 1.904,-5.291 -0.228,-5.291c-1.354,0 -1.772,-0.784 -1.875,-3.519c-0.14,-3.736 1.915,-7.861 3.918,-7.861c0.663,0 1.613,-1.387 2.112,-3.082c0.7,-2.377 1.45,-3.099 3.278,-3.157c6.457,-0.204 7.21,-0.401 5.453,-1.424c-0.913,-0.531 -1.66,-2.052 -1.66,-3.379c0,-1.615 -0.627,-2.576 -1.896,-2.908c-1.05,-0.275 -1.897,-1.294 -1.897,-2.282c0,-0.982 -0.64,-1.786 -1.422,-1.786c-1.686,0 -1.753,-0.457 -0.427,-2.934c0.548,-1.023 1.353,-1.64 1.789,-1.371c0.437,0.27 1.348,-0.177 2.026,-0.994c1.012,-1.219 1.006,-1.623 -0.031,-2.264c-1.498,-0.926 -0.635,-3.817 1.139,-3.817c1.686,0 4.74,-5.89 4.023,-7.759c-0.482,-1.255 1.762,-3.536 5.825,-5.921c0.065,-0.039 0.414,-1.031 0.775,-2.204c0.562,-1.829 0.308,-2.134 -1.779,-2.134c-1.339,0 -2.435,0.427 -2.435,0.948c0,1.069 -3.129,1.297 -4.125,0.3c-0.357,-0.357 -2.568,-0.729 -4.913,-0.828c-2.84,-0.12 -5.464,-1.012 -7.858,-2.671c-1.977,-1.37 -4.557,-2.49 -5.733,-2.49c-3.667,0 -9.398,-5.403 -10.093,-9.515c-0.335,-1.987 -1.218,-3.847 -1.962,-4.132c-1.53,-0.587 -1.867,-4.371 -0.389,-4.371c1.035,0 4.718,-5.546 4.724,-7.113c0.002,-0.521 -1.881,-0.948 -4.185,-0.948c-4.122,0 -6.903,-1.277 -4.584,-2.105c2.462,-0.88 1.049,-1.726 -2.37,-1.42c-3.086,0.276 -3.807,-0.065 -5.453,-2.58c-1.898,-2.901 -3.319,-3.738 -3.319,-1.956c0,0.522 -0.574,0.949 -1.276,0.949c-0.701,0 -2.048,0.853 -2.992,1.896c-0.944,1.043 -2.823,1.91 -4.177,1.926c-2.129,0.025 -2.237,0.159 -0.801,0.995c0.913,0.532 1.659,1.586 1.659,2.342c0,1.363 -1.122,1.516 -13.984,1.902c-2.361,0.071 -4.786,0.809 -5.864,1.785c-1.753,1.586 -1.973,1.583 -4.745,-0.055c-1.599,-0.944 -2.908,-2.052 -2.908,-2.461c0,-0.409 -0.64,-0.744 -1.422,-0.744c-0.783,0 -2.276,-0.853 -3.319,-1.896c-2.426,-2.426 -5.34,-2.426 -6.638,0c-0.559,1.043 -1.783,1.896 -2.721,1.896c-1.974,0 -8.659,-6.345 -8.659,-8.219c0,-0.695 -0.829,-1.264 -1.843,-1.264c-1.014,0 -2.476,-0.904 -3.25,-2.009c-1.055,-1.506 -2.372,-1.996 -5.258,-1.957c-2.837,0.04 -4.206,-0.454 -5.202,-1.877c-1.384,-1.976 -5.622,-4.566 -7.552,-4.616c-0.593,-0.015 -2.497,-1.319 -4.232,-2.897c-2.378,-2.162 -2.904,-3.172 -2.136,-4.097c0.783,-0.944 0.147,-1.62 -2.751,-2.927c-4.305,-1.941 -5.29,-1.497 -8.62,3.891c-1.091,1.767 -2.59,3.213 -3.33,3.213c-2.789,0 -1.177,2.969 3.396,6.254c3.487,2.505 4.742,4.026 4.742,5.745c0,1.415 0.399,2.09 1.012,1.712c0.557,-0.345 1.246,0.269 1.533,1.366c0.308,1.177 1.289,1.992 2.396,1.992c1.031,0 2.074,0.764 2.318,1.697c0.244,0.933 1.378,2.107 2.52,2.608c1.353,0.594 2.075,1.751 2.075,3.327c0,1.547 1.655,4.274 4.606,7.586c7.089,7.959 8.852,12.675 9.62,25.732c0.62,10.547 2.034,17.311 3.898,18.654c1.639,1.181 5.808,7.291 8.209,12.032c2.952,5.828 4.49,13.659 3.825,19.472c-0.37,3.239 0,5.308 1.458,8.167c1.701,3.333 2.46,3.897 5.868,4.354c5.361,0.719 7.873,3.134 7.25,6.972c-0.386,2.383 0.039,3.49 2.099,5.463c1.42,1.362 2.963,2.475 3.428,2.475c3.242,0 15.456,12.986 19.312,20.533c1.427,2.793 -0.355,7.917 -2.754,7.917c-2.579,0 -3.356,1.995 -1.349,3.463c2.271,1.66 2.226,1.671 4.381,-1.068Z" style="fill:#fff;fill-rule:nonzero;"/><path id="TO1" serif:id="TO" d="M236.135,374.41l-0.004,-5.453l-1.959,3.214l-1.96,3.214l-6.392,-0.536c-7.058,-0.592 -9.042,0.04 -8.071,2.569c0.688,1.792 1.992,1.731 9.693,-0.453c3.777,-1.072 4.27,-1.002 6.138,0.866c1.117,1.117 2.15,2.032 2.295,2.032c0.145,0 0.262,-2.454 0.26,-5.453Z" style="fill:#fff;fill-rule:nonzero;"/><path id="TO2" serif:id="TO" d="M199.919,352.811c-0.292,-0.292 -0.822,0.234 -1.178,1.169c-0.515,1.352 -0.406,1.461 0.531,0.531c0.648,-0.643 0.939,-1.408 0.647,-1.7Z" style="fill:#fff;fill-rule:nonzero;"/></g><path id="MA" d="M421.509,379.327c1.337,-1.338 3.113,-3.472 3.945,-4.742c1.244,-1.898 2.297,-2.309 5.921,-2.309c3.659,0 4.566,-0.362 5.343,-2.131c0.515,-1.172 2.003,-2.373 3.307,-2.668c5.633,-1.274 8.659,-2.993 8.026,-4.56c-0.344,-0.851 -0.967,-4.107 -1.385,-7.236c-0.692,-5.187 -9.874,-30.905 -13.619,-38.148c-0.856,-1.656 -1.557,-3.923 -1.557,-5.039c0,-2.424 -3.489,-5.576 -6.223,-5.62c-5.152,-0.083 -12.76,-5.368 -28.211,-19.596c-12.251,-11.281 -17.723,-13.54 -17.723,-7.316c0,1.417 -0.928,3.564 -2.062,4.771c-2.371,2.525 -7.421,3.05 -7.421,0.772c0,-0.782 -0.804,-1.422 -1.786,-1.422c-1.028,0 -2.061,-0.906 -2.435,-2.134c-0.392,-1.292 -0.841,-1.666 -1.137,-0.948c-0.27,0.652 -1.772,1.185 -3.338,1.185c-2.294,0 -3.057,-0.553 -3.922,-2.845c-1.252,-3.317 -2.166,-3.477 -5.4,-0.948c-1.304,1.02 -3.489,1.864 -4.855,1.876c-2.155,0.018 -2.646,0.618 -3.704,4.525c-0.67,2.478 -1.59,4.989 -2.045,5.581c-1.22,1.588 3.019,2.382 6.85,1.283c2.831,-0.812 3.5,-0.626 5.847,1.621c1.457,1.396 2.649,2.916 2.649,3.377c0,1.445 -2.806,3.721 -4.039,3.276c-1.531,-0.552 -6.393,2.251 -6.393,3.685c0,1.409 4.92,2.419 6.117,1.256c0.495,-0.482 1.656,-0.875 2.579,-0.875c1.343,0 1.637,0.706 1.47,3.533c-0.201,3.406 -0.096,3.534 2.937,3.556c2.501,0.018 4.004,0.931 7.336,4.458c2.305,2.44 4.453,4.011 4.774,3.492c0.321,-0.519 1.197,-0.709 1.948,-0.421c0.75,0.288 2.144,0.037 3.097,-0.559c0.954,-0.595 2.437,-0.812 3.297,-0.483c1.245,0.478 1.439,1.374 0.955,4.403c-0.437,2.732 -0.175,4.464 0.933,6.154c0.848,1.294 1.54,3.114 1.539,4.045c-0.002,0.932 0.956,3.504 2.129,5.717c1.703,3.217 1.913,4.372 1.047,5.76c-0.873,1.398 -0.757,1.939 0.598,2.785c1.219,0.761 1.796,2.641 2.1,6.842c0.478,6.607 2.807,9.869 7.102,9.943c1.876,0.032 3.386,1.104 5.549,3.94c2.681,3.516 3.145,3.77 4.747,2.599c2.41,-1.762 4.458,0.276 4.601,4.577c0.113,3.394 3.56,7.336 6.463,7.39c0.889,0.017 2.711,-1.064 4.049,-2.402Z" style="fill:#c7c7c7;fill-rule:nonzero;"/><path id="TA" d="M271.156,123.425c1.613,-0.894 3.173,-1.024 5.216,-0.435c2.308,0.666 3.161,0.506 4.1,-0.769c0.652,-0.886 1.185,-2.196 1.185,-2.911c0,-2.341 5.865,-13.525 7.806,-14.884c1.042,-0.73 2.486,-1.101 3.209,-0.823c0.83,0.318 1.313,-0.148 1.313,-1.271c0,-1.185 1.494,-2.48 4.505,-3.902c5.197,-2.456 9.278,-2.736 10.063,-0.69c1.498,3.903 5.876,-1.566 4.737,-5.919c-0.549,-2.102 2.947,-4.039 7.29,-4.039c3.63,0 10.707,-6.211 8.181,-7.181c-0.872,-0.334 -1.585,-1.426 -1.585,-2.427c0,-1.067 -0.979,-2.191 -2.371,-2.72c-1.382,-0.525 -2.37,-1.653 -2.37,-2.705c0,-0.992 -0.641,-2.335 -1.423,-2.984c-1.803,-1.497 -1.832,-3.696 -0.058,-4.377c0.751,-0.288 1.638,-1.768 1.972,-3.289c0.334,-1.521 1,-2.766 1.48,-2.766c1.683,0 0.855,-2.079 -1.023,-2.57c-1.043,-0.273 -1.897,-1.254 -1.897,-2.181c0,-1.832 1.806,-2.835 5.104,-2.835c5.072,0 10.069,-5.136 10.069,-10.348c0,-0.961 0.648,-2.286 1.44,-2.944c1.175,-0.974 1.758,-0.908 3.157,0.359c0.944,0.854 2.188,1.553 2.763,1.553c0.576,0 1.318,0.854 1.65,1.898c0.478,1.506 1.128,1.773 3.146,1.292c1.399,-0.334 3.299,-0.995 4.222,-1.469c0.924,-0.473 2.035,-0.641 2.47,-0.372c0.435,0.269 1.711,-0.49 2.835,-1.687l2.045,-2.176l-2.381,-1.274c-1.309,-0.701 -2.381,-1.859 -2.381,-2.574c0,-3.682 -7.451,-14.501 -9.987,-14.501c-1.706,0 -3.79,-2.952 -4.982,-7.055c-1.213,-4.179 -0.468,-5.807 3.314,-7.245c1.195,-0.454 2.172,-1.482 2.172,-2.285c0,-1.303 -0.379,-1.297 -3.556,0.053c-19.513,8.295 -27.075,10.459 -27.901,7.983c-0.176,-0.529 -3.134,-1.225 -6.572,-1.546c-7.362,-0.687 -23.743,2.676 -27.008,5.546c-1.086,0.954 -2.487,3.956 -3.114,6.671c-1.609,6.973 -4.037,9.258 -9.838,9.258c-5.648,0 -7.741,-1.003 -12.325,-5.906c-2.609,-2.791 -3.985,-3.607 -5.216,-3.095c-0.919,0.383 -3.687,0.91 -6.15,1.173c-6.06,0.646 -6.653,2.7 -4.716,16.363c0.555,3.911 0.93,8.605 0.834,10.431c-0.15,2.852 0.15,3.365 2.127,3.644c4.104,0.58 6.524,2.893 7.198,6.881c0.706,4.182 -0.54,6.545 -3.452,6.545c-1.957,0 -2.297,1 -0.837,2.46c2.282,2.282 0.734,19.346 -1.978,21.8c-0.996,0.901 -1.81,2.285 -1.81,3.076c0,0.791 -0.712,2.225 -1.583,3.187c-1.48,1.635 -1.477,1.827 0.039,2.935c1.061,0.776 1.748,2.88 1.986,6.079c0.565,7.582 5.149,10.816 8.671,6.118c1.249,-1.666 8.137,-1.836 11.96,-0.295c2.924,1.178 4.401,5.142 2.686,7.209c-0.864,1.042 -0.737,1.769 0.579,3.307c1.966,2.295 1.979,2.297 4.99,0.629Z" style="fill:#c7c7c7;fill-rule:nonzero;"/><g id="VEN"><path id="VE" d="M356.218,199.342c-0.384,-1.528 0.016,-2.76 1.26,-3.886c2.265,-2.05 4.157,-1.028 3.589,1.939c-0.59,3.092 1.098,1.808 2.716,-2.064c1.845,-4.416 1.704,-7.027 -0.379,-7.027c-0.937,0 -3.234,-1.601 -5.105,-3.557c-4.451,-4.653 -15.863,-21.305 -16.166,-23.587c-0.13,-0.979 1.577,-5.3 3.794,-9.603c3.652,-7.09 4.643,-8.231 10.581,-12.18c6.364,-4.231 6.65,-4.321 9.947,-3.129c3.925,1.419 4.26,3.105 1.261,6.361c-1.808,1.964 -1.123,1.761 4.505,-1.331c13.28,-7.298 22.501,-11.77 24.27,-11.77c2.36,0 2.284,-0.92 -0.562,-6.82c-1.304,-2.703 -2.371,-5.602 -2.371,-6.443c0,-1.189 -0.738,-1.443 -3.319,-1.141c-2.301,0.268 -3.319,0.006 -3.319,-0.855c0,-0.965 -0.253,-0.989 -1.138,-0.103c-1.613,1.612 -3.411,1.409 -3.771,-0.425c-0.258,-1.313 -0.784,-1.161 -3.289,0.948c-3.386,2.851 -4.897,3.141 -5.684,1.089c-0.3,-0.783 -1.46,-1.429 -2.578,-1.437c-2.959,-0.021 -3.98,-0.972 -5.449,-5.078c-0.723,-2.018 -2.208,-4.372 -3.3,-5.232c-1.093,-0.859 -2.234,-2.622 -2.537,-3.917c-0.303,-1.295 -0.847,-3.311 -1.21,-4.48c-0.509,-1.643 0.012,-2.753 2.294,-4.885c3.32,-3.101 3.581,-4.09 1.532,-5.791c-0.783,-0.65 -1.423,-1.953 -1.423,-2.898c0,-0.955 -0.946,-2.005 -2.134,-2.366c-2.965,-0.904 -5.452,-3.261 -5.452,-5.168c0,-1.755 2.617,-4.455 5.913,-6.098c1.158,-0.577 2.756,-2.794 3.549,-4.926c1.898,-5.098 3.294,-6.653 6.557,-7.305c1.678,-0.336 2.898,-1.298 3.223,-2.54c0.288,-1.099 1.837,-2.495 3.442,-3.101c2.519,-0.95 2.92,-1.573 2.92,-4.527c0,-4.264 -1.832,-5.298 -10.631,-6.002c-5.85,-0.469 -6.503,-0.332 -8.106,1.706c-1.242,1.58 -3.16,2.411 -6.675,2.895c-2.713,0.373 -5.171,1.065 -5.463,1.538c-0.989,1.6 -3.056,0.871 -3.609,-1.275c-0.704,-2.731 -5.345,-5.133 -5.345,-2.765c0,0.858 -0.719,3.299 -1.598,5.424c-1.282,3.099 -2.312,4.087 -5.201,4.989c-1.982,0.618 -4.771,1.124 -6.199,1.124l-2.597,0l2.107,1.476c2.067,1.448 2.955,5.162 1.235,5.162c-0.48,0 -1.146,1.245 -1.48,2.766c-0.334,1.521 -1.28,3.024 -2.101,3.339c-1.35,0.518 -1.344,0.739 0.058,2.288c0.853,0.943 1.551,2.452 1.551,3.355c0,0.902 0.379,1.407 0.841,1.121c1.111,-0.687 3.535,2.292 6.356,7.81c0.356,0.696 -0.251,2.063 -1.385,3.119c-1.11,1.035 -2.019,2.205 -2.019,2.602c0,0.978 -5.756,2.995 -8.602,3.013c-3.199,0.02 -4.167,0.954 -4.406,4.252c-0.113,1.565 -0.273,3.794 -0.356,4.953c-0.082,1.159 -0.893,2.343 -1.802,2.632c-2.009,0.638 -6.645,-0.998 -6.645,-2.345c0,-1.456 -2.737,-1.175 -6.717,0.687c-2.508,1.175 -3.703,2.434 -4.087,4.306c-0.453,2.204 -0.97,2.6 -3.095,2.371c-2.276,-0.246 -2.889,0.389 -5.685,5.889c-1.724,3.39 -3.143,6.677 -3.155,7.304c-0.011,0.628 -0.535,2.271 -1.165,3.653c-1.067,2.343 -1.443,2.472 -5.603,1.92c-2.668,-0.354 -4.59,-0.211 -4.783,0.356c-0.178,0.522 -1.71,1.225 -3.405,1.562c-2.465,0.492 -3.082,0.306 -3.082,-0.926c0,-0.848 -0.64,-1.541 -1.423,-1.541c-1.577,0 -2.015,-4.675 -0.581,-6.212c0.462,-0.495 0.531,-1.738 0.154,-2.762c-0.652,-1.767 -0.76,-1.743 -2.118,0.474c-0.787,1.285 -3.62,5.816 -6.295,10.07c-4.837,7.693 -4.862,7.773 -4.649,14.897c0.189,6.354 0.427,7.194 2.11,7.439c1.539,0.224 1.892,0.99 1.872,4.069c-0.025,3.814 1.748,6.353 3.868,5.539c0.593,-0.227 2.233,1.1 3.644,2.951c1.411,1.85 3.198,3.364 3.97,3.364c0.772,0 1.633,0.598 1.914,1.329c0.28,0.731 1.333,1.544 2.338,1.807c1.006,0.263 2.199,1.479 2.651,2.701c0.453,1.223 1.201,2.223 1.662,2.223c0.462,0 0.901,0.64 0.976,1.423c0.075,0.782 0.182,1.795 0.237,2.25c0.056,0.455 0.741,0.296 1.524,-0.354c0.782,-0.649 1.422,-0.862 1.422,-0.474c0,0.389 0.534,0.28 1.186,-0.241c1.902,-1.52 4.978,0.156 4.978,2.712c0,1.592 0.536,2.272 1.79,2.276c0.998,0.003 2.146,0.968 2.595,2.181c0.475,1.285 2.558,2.952 5.085,4.07c2.355,1.041 4.281,2.428 4.281,3.081c0,0.783 1.056,1.064 3.096,0.826c2.333,-0.272 3.747,0.241 5.733,2.081c2.569,2.382 2.7,2.402 5.201,0.802c1.411,-0.902 3.016,-2.221 3.568,-2.93c1.545,-1.989 9.913,-3.793 15.93,-3.434c6.824,0.407 9.146,1.139 9.146,2.883c0,1.089 1.093,1.288 5.216,0.953l5.215,-0.423l0,3.724c0,2.539 0.418,3.725 1.312,3.725c0.722,0 1.535,0.853 1.808,1.896c0.273,1.043 0.796,1.897 1.162,1.897c0.366,0 0.413,-1.007 0.104,-2.238Z" style="fill:#fff;fill-rule:nonzero;"/><path id="VEN1" serif:id="VEN" d="M363.212,146.104c2.233,-1.277 2.254,-1.358 0.353,-1.389c-1.109,-0.019 -2.549,0.606 -3.198,1.389c-1.473,1.775 -0.261,1.775 2.845,0Z" style="fill:#fff;fill-rule:nonzero;"/></g><g id="FVG"><path id="FVG1" serif:id="FVG" d="M448.812,132.3c1.555,-2.471 -3.919,-10.201 -8.757,-12.367c-5.637,-2.524 -6.3,-2.256 -2.554,1.033c1.777,1.56 4.246,5.189 5.486,8.064c2.268,5.26 3.97,6.216 5.825,3.27Z" style="fill:#fff;fill-rule:nonzero;"/><path id="FV" d="M424.663,123.629c0.625,-0.626 1.138,-2.129 1.138,-3.34c0,-1.428 0.833,-2.581 2.37,-3.281c2.194,-1 3.408,-4.569 1.554,-4.569c-1.215,0 -0.125,-4.515 1.396,-5.777c0.725,-0.602 1.318,-2.407 1.318,-4.012c0,-2.27 -0.253,-2.666 -1.138,-1.781c-1.932,1.932 -5.447,1.346 -6.559,-1.095c-0.814,-1.786 -0.616,-3.019 0.988,-6.164c1.103,-2.162 2.321,-3.931 2.707,-3.931c1.205,0 5.898,-4.758 5.898,-5.98c0,-1.648 -8.454,-4.362 -11.874,-3.812c-2.697,0.434 -2.932,0.219 -3.974,-3.645c-1.105,-4.098 -1.099,-4.115 2.866,-8.198c2.185,-2.251 6.534,-5.629 9.663,-7.508c3.13,-1.879 5.744,-3.452 5.809,-3.495c0.066,-0.043 0.396,-0.98 0.734,-2.081c0.545,-1.779 -0.005,-2.176 -4.913,-3.554c-3.04,-0.853 -9.558,-1.783 -14.484,-2.068c-10.439,-0.603 -32.616,-4.812 -35.824,-6.799l-2.211,-1.369l0.661,5.288c0.643,5.147 0.599,5.289 -1.638,5.289c-2.318,0 -7.017,2.758 -4.795,2.814c0.652,0.017 1.185,0.857 1.185,1.868c0,1.52 -0.655,1.828 -3.798,1.784c-4.478,-0.061 -6.291,1.197 -7.112,4.934c-0.715,3.255 -3.91,7.566 -5.607,7.566c-0.664,0 -1.917,0.784 -2.784,1.743c-1.472,1.627 -1.467,1.839 0.09,3.206c0.917,0.806 2.627,1.757 3.801,2.115c1.187,0.362 2.134,1.411 2.134,2.367c0,0.944 0.64,2.248 1.422,2.897c2.335,1.937 1.773,6.365 -1.042,8.209c-2.192,1.436 -2.4,2.043 -1.876,5.475c0.35,2.292 1.447,4.575 2.702,5.621c1.162,0.968 2.806,3.529 3.652,5.69c1.115,2.843 2.163,4.019 3.794,4.256c1.239,0.181 2.772,0.754 3.405,1.274c0.8,0.657 2.005,0.339 3.94,-1.039c3.04,-2.165 5.814,-2.604 5.814,-0.921c0,0.704 0.517,0.636 1.525,-0.201c1.28,-1.062 1.699,-1.039 2.608,0.145c1.166,1.52 2.863,1.795 4.007,0.651c1.418,-1.418 3.24,-0.664 3.24,1.341c0,1.129 0.716,3.677 1.592,5.662l1.592,3.609l1.713,-2.816c1.174,-1.93 2.468,-2.817 4.112,-2.817c4.332,0 13.765,3.13 15.912,5.279c2.54,2.543 2.833,2.623 4.287,1.17Z" style="fill:#fff;fill-rule:nonzero;"/></g><g id="SIC"><path id="SI" d="M525.373,864.482c0,-0.504 -0.693,-2.37 -1.541,-4.148c-1.445,-3.03 -1.426,-3.58 0.303,-8.804c1.551,-4.686 2.625,-6.159 6.757,-9.262c4.175,-3.135 4.913,-4.157 4.913,-6.809c0,-2.509 -0.416,-3.179 -2.126,-3.423c-3.088,-0.44 -10.332,-15.38 -11.182,-23.062c-0.665,-6.004 0.549,-10.174 3.264,-11.216c1.698,-0.651 4.354,-9.135 4.354,-13.909c0,-3.471 4.676,-11.186 14.888,-24.561c2.296,-3.008 4.544,-7.393 5.456,-10.645c0.854,-3.042 2.28,-5.939 3.169,-6.438c1.501,-0.843 1.491,-0.957 -0.138,-1.584c-1.21,-0.466 -6.173,1.49 -15.966,6.294l-14.209,6.97l-4.551,-1.616c-7.413,-2.633 -11.828,-2.166 -17.267,1.826c-8.454,6.206 -26.205,9.302 -40.532,7.07c-4.086,-0.637 -7.267,-0.74 -7.587,-0.247c-1.299,2.004 -6.982,3.959 -11.505,3.959c-4.123,0 -6.435,-0.831 -14.819,-5.328c-5.464,-2.931 -10.079,-5.812 -10.256,-6.401c-0.177,-0.59 -0.591,-2.294 -0.92,-3.787l-0.598,-2.713l-6.357,0.669c-7.368,0.775 -9.994,2.515 -9.239,6.123c0.637,3.042 -0.017,3.912 -4.499,5.984c-5.629,2.604 -7.822,2.153 -12.555,-2.579l-4.239,-4.24l-5.605,3.285c-4.405,2.582 -6.069,4.241 -7.764,7.745c-1.249,2.578 -2.075,5.889 -1.959,7.85c0.11,1.865 -0.389,4.197 -1.109,5.181c-2.376,3.25 -0.156,8.503 5.887,13.925c5.027,4.511 5.543,4.746 9.122,4.148c7.135,-1.192 13.058,-0.51 16.595,1.909c1.825,1.249 5.128,2.673 7.338,3.165c4.233,0.941 10.143,5.214 10.944,7.912c0.468,1.578 14.645,9.309 17.07,9.309c0.691,0 3.08,1.914 5.309,4.254c2.232,2.342 6.685,5.498 9.909,7.023c5.304,2.509 6.508,2.721 12.804,2.252c6.072,-0.452 7.45,-0.24 10.906,1.678c6.903,3.831 11.458,8.185 14.348,13.716c3.207,6.139 4.8,7.441 15.013,12.274c6.493,3.073 7.755,3.376 10.431,2.501c3.638,-1.189 12.908,0.873 14.419,3.209c1.043,1.611 3.324,1.982 3.324,0.541Z" style="fill:#c7c7c7;fill-rule:nonzero;"/><path id="SI1" serif:id="SI" d="M335.274,857.752c0.74,-1.198 -2.178,-4.682 -3.921,-4.682c-1.992,0 -2.297,1.451 -0.764,3.639c1.542,2.202 3.675,2.677 4.685,1.043Z" style="fill:#c7c7c7;fill-rule:nonzero;"/><path id="SI2" serif:id="SI" d="M514.615,722.508c-0.273,-0.272 -0.971,-0.201 -1.553,0.159c-0.759,0.469 -0.71,1.073 0.174,2.139c1.11,1.339 1.264,1.323 1.553,-0.159c0.176,-0.904 0.098,-1.867 -0.174,-2.139Z" style="fill:#c7c7c7;fill-rule:nonzero;"/></g><path id="CA" d="M584.708,764.217c1.126,-1.667 2.343,-5.261 2.705,-7.987c0.566,-4.263 1.51,-5.978 6.76,-12.272c4.733,-5.675 6.81,-7.449 9.255,-7.908c1.733,-0.325 4.724,-2.031 6.645,-3.791c3.328,-3.048 3.493,-3.485 3.482,-9.235c-0.006,-3.32 -0.619,-8.321 -1.362,-11.112c-1.427,-5.359 -1.12,-7.051 2.141,-11.828c2.383,-3.491 12.588,-9.734 18.927,-11.578c4.49,-1.306 5.493,-1.306 9.9,0.003c3.884,1.153 5.061,1.209 5.658,0.268c1.217,-1.916 0.895,-6.919 -0.634,-9.851c-1.69,-3.241 -1.944,-17.887 -0.407,-23.425c1.13,-4.07 0.572,-4.828 -5.762,-7.826c-1.826,-0.864 -6.592,-4.079 -10.591,-7.144c-6.196,-4.749 -7.857,-5.573 -11.233,-5.573c-5.245,0 -8.784,-2.231 -10.283,-6.483c-2.462,-6.98 -2.354,-7.93 1.696,-14.859c3.123,-5.346 3.847,-7.461 3.726,-10.9c-0.082,-2.347 0.134,-5.159 0.481,-6.248c0.589,-1.853 0.268,-1.984 -4.966,-2.034l-5.597,-0.052l-0.637,4.805c-0.351,2.643 -1.118,5.692 -1.705,6.775c-0.587,1.083 -0.982,3.143 -0.879,4.577c0.223,3.09 -1.681,3.487 -3.415,0.712c-1.224,-1.961 -4.436,-2.565 -5.394,-1.015c-0.3,0.485 -2.915,1.178 -5.812,1.54c-4.788,0.598 -5.403,0.463 -6.774,-1.494c-3.743,-5.345 -9.479,-6.866 -13.526,-3.588c-1.992,1.613 -2.093,2.087 -1.124,5.318c0.584,1.951 1.349,6.739 1.698,10.639c0.675,7.526 2.976,12.95 9.446,22.265c3.882,5.59 6.093,12.34 6.093,18.604c0,4.886 2.911,18.279 4.699,21.62c0.609,1.136 2.147,2.462 3.42,2.946c1.979,0.752 2.313,1.495 2.313,5.151c0,4.367 -2.382,11.79 -4.202,13.1c-0.558,0.401 -3.047,0.466 -5.531,0.146c-3.99,-0.515 -5.066,-0.23 -9.223,2.437l-4.706,3.02l2.925,3.639l2.924,3.64l-1.454,5.731c-0.8,3.152 -2.83,8.311 -4.51,11.463c-2.878,5.4 -3.354,5.82 -8.199,7.228c-4.238,1.232 -5.009,1.773 -4.377,3.068c0.422,0.865 0.82,4.826 0.886,8.802c0.065,3.976 0.442,7.752 0.837,8.391c1.41,2.282 6.123,3.346 14.816,3.346l8.823,0l2.047,-3.031Z" style="fill:#c7c7c7;fill-rule:nonzero;"/><g id="CAM"><path id="CM" d="M545.469,600.466c2.682,-3.362 6.757,-4.802 9.473,-3.349c1.884,1.009 4.571,-2.098 4.571,-5.284c0,-1.059 1.28,-3.134 2.845,-4.611c1.564,-1.476 2.844,-3.001 2.844,-3.387c0,-0.387 -1.066,-1.705 -2.37,-2.93c-1.304,-1.225 -2.371,-3.231 -2.371,-4.456c0,-1.505 -0.77,-2.522 -2.371,-3.131c-1.304,-0.496 -2.371,-1.338 -2.371,-1.873c0,-0.534 -0.56,-0.972 -1.244,-0.972c-1.514,0 -5.545,-5.258 -5.28,-6.889c0.318,-1.956 -1.799,-6.174 -3.617,-7.206c-1.483,-0.842 -1.546,-1.245 -0.465,-3.009c1.302,-2.125 0.687,-3.052 -3.749,-5.648c-2.639,-1.544 -3.851,-13.851 -1.515,-15.377c0.645,-0.42 2.025,-0.714 3.068,-0.653c3.667,0.216 4.264,-0.131 6.599,-3.829c2.022,-3.204 2.212,-4.142 1.341,-6.638c-0.557,-1.6 -1.64,-2.908 -2.405,-2.908c-0.766,0 -2.292,-0.481 -3.392,-1.07c-1.099,-0.589 -3.871,-1.218 -6.159,-1.398c-4.133,-0.325 -9.575,-3.537 -9.682,-5.714c-0.029,-0.588 0.54,-1.561 1.265,-2.162c0.725,-0.602 1.52,-2.152 1.767,-3.445c0.402,-2.103 0.065,-2.413 -3.187,-2.933c-2.297,-0.367 -3.833,-1.199 -4.169,-2.259c-0.293,-0.922 -1.372,-1.896 -2.398,-2.165c-1.96,-0.512 -2.589,-3.899 -0.917,-4.932c1.511,-0.934 1.105,-3.163 -0.948,-5.216c-2.107,-2.107 -3.047,-2.289 -5.466,-1.059c-5.07,2.579 -6.928,3.16 -8.662,2.706c-1.058,-0.277 -2.418,0.093 -3.023,0.821c-0.605,0.729 -2.232,1.325 -3.617,1.325c-1.385,0 -3.526,0.706 -4.757,1.568c-1.77,1.24 -2.607,1.339 -3.992,0.475c-0.963,-0.602 -2.624,-1.095 -3.691,-1.095c-1.067,0 -2.185,-0.64 -2.485,-1.422c-0.3,-0.782 -1.096,-1.423 -1.768,-1.423c-0.672,0 -4.186,-1.261 -7.809,-2.803c-5.032,-2.141 -7.238,-2.626 -9.345,-2.055c-2.505,0.679 -2.729,1.074 -2.44,4.288l0.319,3.54l-3.635,-0.3c-3.015,-0.248 -3.877,-0.811 -5.06,-3.305l-1.425,-3.006l-2.231,1.814c-1.76,1.431 -2.264,2.836 -2.392,6.654c-0.111,3.354 -0.664,5.208 -1.799,6.038c-0.902,0.659 -1.639,1.655 -1.639,2.213c0,0.559 -0.933,1.152 -2.074,1.318c-2.05,0.3 -2.053,0.324 -0.237,2.101c2.787,2.727 10.467,15.266 14.727,24.044c3.677,7.577 3.901,7.823 7.104,7.823c1.818,0 4.253,-0.62 5.409,-1.377c1.956,-1.282 2.552,-1.07 8.533,3.043c8.107,5.574 8.94,7.895 4.31,12.007c-1.81,1.608 -4.115,3.444 -5.121,4.082c-1.782,1.128 -1.781,1.142 0.066,0.545c1.043,-0.338 2.843,-1.219 3.999,-1.959c1.418,-0.907 3.295,-1.143 5.764,-0.726c2.727,0.46 3.976,0.241 4.889,-0.86c0.675,-0.813 2.147,-1.478 3.271,-1.478c1.124,0 3.066,-0.717 4.316,-1.592c2.238,-1.568 2.339,-1.519 6.612,3.191c6.345,6.993 13.289,24.953 9.648,24.953c-1.165,0 -2.894,5.182 -2.129,6.383c0.926,1.456 7.055,4.989 8.675,5.001c0.782,0.005 5.049,3.4 9.483,7.544c4.433,4.144 8.487,7.554 9.009,7.58c0.521,0.025 2.096,-1.394 3.5,-3.153Z" style="fill:#fff;fill-rule:nonzero;"/><path id="CM1" serif:id="CM" d="M451.935,545.313c-2.018,-1.526 -4.323,-1.847 -4.323,-0.602c0,1.398 1.205,2.055 3.714,2.024c2.359,-0.029 2.381,-0.082 0.609,-1.422Z" style="fill:#fff;fill-rule:nonzero;"/></g><path id="LA" d="M402.512,501.335c0.292,-0.473 2.533,-1.541 4.98,-2.375c4.3,-1.465 4.748,-1.431 13.384,1.02c7.215,2.047 9.281,2.319 10.734,1.412c1.604,-1.002 3.467,-0.907 8.49,0.429c0.824,0.219 2.717,-0.649 4.208,-1.93c2.341,-2.012 2.704,-2.991 2.67,-7.202c-0.038,-4.605 0.158,-5.004 3.545,-7.246c1.971,-1.305 3.845,-3.051 4.163,-3.881c1.839,-4.792 -3.245,-17.3 -7.032,-17.3c-1.005,0 -2.091,-0.426 -2.413,-0.948c-0.322,-0.522 -1.812,-0.948 -3.311,-0.948c-1.841,0 -2.91,-0.583 -3.295,-1.795c-0.729,-2.297 -3.902,-3.146 -5.329,-1.427c-1.366,1.646 -7.143,1.744 -8.17,0.14c-1.192,-1.865 -4.764,-3.557 -7.508,-3.557c-2.361,0 -2.48,-0.213 -2.021,-3.634c0.499,-3.719 -1.095,-5.849 -4.376,-5.849c-0.726,0 -1.843,-0.631 -2.484,-1.402c-1.548,-1.866 -6.496,-4.288 -8.759,-4.288c-0.997,0 -2.639,-0.441 -3.648,-0.981c-2.592,-1.388 -2.55,-7.598 0.063,-9.23c1.043,-0.651 1.896,-1.792 1.896,-2.535c0,-2.367 3.667,-2.687 7.732,-0.676c6.758,3.343 9.165,0.231 4.092,-5.292c-1.804,-1.964 -3.282,-4.303 -3.284,-5.197c-0.003,-0.894 -0.886,-2.098 -1.962,-2.674c-1.557,-0.833 -1.833,-1.616 -1.347,-3.826c0.361,-1.645 0.218,-2.779 -0.35,-2.779c-1.829,0 -2.262,-3.868 -0.634,-5.667c1.342,-1.483 1.389,-2.048 0.323,-3.85c-0.99,-1.671 -1.003,-2.201 -0.065,-2.54c0.652,-0.236 1.185,-1.013 1.185,-1.726c0,-2.125 2.829,-3.093 6.528,-2.233c1.886,0.439 3.934,0.807 4.551,0.82c1.573,0.032 2.655,-3.85 1.307,-4.684c-0.602,-0.372 -1.821,-2.132 -2.71,-3.912c-1.168,-2.34 -2.248,-3.235 -3.9,-3.235c-1.857,0 -2.485,0.711 -3.35,3.793c-0.981,3.496 -1.408,3.867 -5.465,4.741c-2.421,0.522 -4.719,1.269 -5.106,1.66c-0.388,0.391 -2.312,0.711 -4.275,0.711c-2.88,0 -3.628,0.379 -3.872,1.965c-0.167,1.08 -1.583,2.68 -3.148,3.556c-1.565,0.875 -2.987,1.912 -3.161,2.303c-0.174,0.391 -0.921,0.711 -1.66,0.711c-0.789,0 -1.343,0.947 -1.343,2.295c0,1.812 -0.64,2.437 -3.035,2.963c-1.669,0.366 -4.263,1.894 -5.763,3.394c-2.707,2.707 -5.427,3.599 -5.427,1.779c0,-0.521 -1.326,-0.948 -2.946,-0.948c-2.23,0 -2.814,-0.346 -2.401,-1.422c0.301,-0.783 0.133,-1.423 -0.372,-1.423c-0.506,0 -0.919,-1.092 -0.919,-2.427c0,-1.334 -0.409,-2.173 -0.91,-1.864c-0.5,0.309 -1.674,0.152 -2.608,-0.349c-0.934,-0.501 -2.444,-1.142 -3.357,-1.425c-0.979,-0.303 -1.66,-1.45 -1.66,-2.798c0,-1.256 -0.595,-2.778 -1.323,-3.382c-0.728,-0.604 -1.595,-2.546 -1.927,-4.315c-0.727,-3.876 -1.52,-4.211 -7.267,-3.075c-3.941,0.779 -4.784,0.631 -7.397,-1.301c-3.065,-2.266 -3.717,-4.468 -1.872,-6.314c0.804,-0.804 0.684,-1.471 -0.474,-2.628c-0.853,-0.854 -1.551,-2.136 -1.551,-2.85c0,-2.22 -1.778,-2.535 -4.229,-0.75c-2.37,1.725 -3.214,4.081 -1.461,4.081c1.216,0 1.242,3.5 0.031,4.248c-0.504,0.312 -0.664,1.83 -0.355,3.375c0.334,1.671 0.162,2.808 -0.424,2.808c-0.542,0 -2.483,1.455 -4.314,3.232c-1.831,1.778 -4.175,3.501 -5.209,3.83c-2.145,0.68 -3.37,3.032 -2.015,3.869c0.498,0.308 0.906,1.79 0.906,3.292c0,2.501 -0.351,2.783 -4.181,3.357c-2.955,0.444 -4.317,1.146 -4.644,2.394c-0.496,1.897 0.147,2.568 4.526,4.721c3.913,1.925 9.899,8.259 10.614,11.233c0.328,1.363 1.822,4.932 3.319,7.931c2.406,4.821 3.052,5.453 5.564,5.453c3.349,0 14.799,7.262 17.755,11.261c1.076,1.455 2.55,4.401 3.275,6.548c0.755,2.234 2.721,5.042 4.594,6.566c6.111,4.967 12.746,11.86 16.123,16.748c3.202,4.635 3.811,5.025 12.61,8.072c8.615,2.983 9.533,3.554 13.468,8.384c2.322,2.851 4.222,5.785 4.222,6.519c0,1.48 4.296,1.876 5.161,0.476Z" style="fill:#c7c7c7;fill-rule:nonzero;"/><path id="UM" d="M368.865,406.484c0.538,-1.005 0.742,-2.444 0.453,-3.197c-0.791,-2.062 2.612,-2.994 4,-1.096c1.346,1.84 3.17,1.051 3.17,-1.371c0,-1.052 1.791,-2.665 4.742,-4.27c3.023,-1.646 4.741,-3.21 4.741,-4.317c0,-1.988 1.797,-2.887 5.768,-2.887c1.522,0 2.767,-0.38 2.767,-0.845c0,-0.464 1.387,-1.036 3.082,-1.271c6.285,-0.869 7.152,-1.648 7.283,-6.547c0.041,-1.546 0.94,-3.071 2.357,-4c1.593,-1.044 2.137,-2.086 1.786,-3.428c-0.543,-2.076 -1.71,-2.506 -2.654,-0.979c-1.129,1.826 -3.182,0.92 -5.157,-2.277c-2.214,-3.581 -4.607,-4.933 -6.097,-3.444c-1.613,1.614 -3.445,1.11 -3.445,-0.947c0,-1.059 -0.61,-2.161 -1.356,-2.447c-1.856,-0.712 -3.385,-5.48 -3.385,-10.556c0,-3.417 -0.359,-4.308 -1.897,-4.71c-2.08,-0.544 -2.514,-3.071 -0.819,-4.767c0.805,-0.804 0.564,-1.947 -0.948,-4.511c-1.114,-1.888 -2.026,-4.278 -2.026,-5.309c0,-1.032 -0.686,-2.922 -1.523,-4.201c-0.974,-1.486 -1.393,-3.698 -1.161,-6.131c0.34,-3.567 -0.483,-5.21 -1.333,-2.66c-0.21,0.63 -1.973,1.247 -3.918,1.371c-3.133,0.201 -4.062,-0.318 -8.128,-4.537c-4.256,-4.415 -4.747,-4.672 -6.717,-3.505c-1.679,0.994 -2.214,1.01 -2.553,0.073c-0.236,-0.652 -1.261,-1.186 -2.277,-1.186c-2.451,0 -3.377,-2.638 -1.431,-4.076c1.298,-0.958 0.925,-1.163 -2.336,-1.287c-3.522,-0.134 -4.069,0.172 -5.916,3.303c-1.12,1.898 -1.901,4.248 -1.736,5.221c0.165,0.978 -0.583,2.389 -1.673,3.152c-2.557,1.791 -2.602,5.688 -0.076,6.49c1.336,0.423 1.897,1.434 1.897,3.416c0,2.489 0.212,2.701 1.834,1.833c2.589,-1.386 2.908,-1.258 2.908,1.161c0,2.583 -2.447,4.257 -7.373,5.045c-2.917,0.467 -3.873,1.145 -4.7,3.337c-0.572,1.513 -1.701,2.751 -2.51,2.751c-2.14,0 -3.581,3.234 -2.611,5.857c0.448,1.212 1.193,1.991 1.655,1.73c1.508,-0.852 1.498,3.847 -0.015,7.629c-0.911,2.277 -1.248,4.855 -0.876,6.711c0.451,2.255 0.188,3.317 -1.042,4.217c-1.388,1.014 -1.463,1.547 -0.483,3.413c0.639,1.217 1.74,2.553 2.446,2.97c1.671,0.987 1.627,2.507 -0.13,4.448c-1.271,1.404 -1.129,1.773 1.397,3.64c2.53,1.871 3.264,1.977 7.335,1.065c4.15,-0.93 4.661,-0.844 6.189,1.044c0.916,1.131 1.666,3.031 1.666,4.221c0,1.191 0.64,2.41 1.422,2.711c0.783,0.3 1.423,1.6 1.423,2.89c0,2.835 1.035,3.568 5.209,3.686c2.911,0.083 3.28,0.435 4.311,4.12c0.909,3.246 1.614,4.103 3.628,4.413c1.374,0.212 2.804,0.449 3.177,0.527c0.373,0.078 1.118,-0.681 1.656,-1.686Z" style="fill:#c7c7c7;fill-rule:nonzero;"/><path id="AB" d="M458.003,463.837c0.627,-0.756 2.597,-1.855 4.378,-2.443c2.755,-0.909 3.098,-1.332 2.295,-2.831c-1.456,-2.721 -1.126,-4.546 0.94,-5.202c1.036,-0.329 3.158,-1.872 4.716,-3.43c2.372,-2.372 3.145,-2.665 4.755,-1.804c1.057,0.566 1.922,1.469 1.922,2.008c0,0.538 0.782,0.731 1.738,0.427c2.089,-0.663 4.489,1.737 5.404,5.403c0.358,1.434 0.959,2.607 1.335,2.607c0.377,0 2.121,-2.027 3.877,-4.504c1.755,-2.478 3.748,-4.846 4.428,-5.263c0.68,-0.417 1.236,-1.392 1.236,-2.166c0,-0.774 1.233,-2.612 2.74,-4.085c2.736,-2.675 4.897,-8.638 3.131,-8.638c-0.505,0 -1.19,-1.45 -1.523,-3.224c-0.673,-3.586 -1.795,-4.777 -5.296,-5.62c-1.304,-0.314 -8.822,-6.881 -16.708,-14.593c-11.011,-10.769 -15.291,-15.671 -18.452,-21.133c-4.097,-7.083 -8.45,-17.942 -8.458,-21.1c-0.005,-2.029 -1.514,-2.097 -5.091,-0.232c-1.494,0.78 -3.532,1.417 -4.528,1.417c-1.06,0 -2.186,0.984 -2.713,2.371c-0.866,2.277 -2.855,2.845 -9.216,2.63c-0.635,-0.021 -1.699,1.192 -2.365,2.696c-0.666,1.504 -1.786,2.734 -2.49,2.734c-0.704,0 -1.503,0.854 -1.776,1.897c-0.351,1.344 -1.293,1.897 -3.23,1.897c-2.907,0 -3.685,1.329 -1.312,2.239c1.904,0.731 1.809,4.825 -0.157,6.792c-1.264,1.263 -2.593,1.453 -6.639,0.947c-4.235,-0.529 -5.058,-0.389 -5.058,0.859c0,0.82 -0.512,1.491 -1.138,1.491c-0.885,0 -0.885,0.253 0,1.138c1.569,1.568 1.425,4.081 -0.316,5.526c-1.291,1.072 -1.229,1.447 0.555,3.346c1.564,1.664 1.796,2.538 1.047,3.938c-0.757,1.413 -0.57,2.045 0.867,2.943c1.006,0.628 1.83,1.909 1.83,2.845c0,1.84 5.123,7.126 7.823,8.072c2.223,0.779 2.125,3.486 -0.126,3.486c-0.988,0 -2.007,0.847 -2.282,1.897c-0.656,2.509 -4.766,2.507 -9.696,-0.007l-3.733,-1.903l-0.712,1.924c-0.391,1.058 -1.362,2.174 -2.157,2.479c-1.934,0.742 -1.885,5.67 0.063,6.417c0.829,0.319 1.895,0.34 2.369,0.047c0.885,-0.547 5.712,1.807 8.733,4.26c0.938,0.761 2.27,1.467 2.96,1.568c0.691,0.101 2.411,0.941 3.824,1.867c2.21,1.448 2.486,2.124 1.976,4.843c-0.503,2.677 -0.319,3.161 1.201,3.161c2.307,0 7.775,2.716 7.775,3.863c0,1.417 3.974,1.008 5.741,-0.59c2.037,-1.844 6.242,-0.948 7.618,1.623c0.633,1.183 1.585,1.641 2.686,1.292c0.938,-0.298 2.223,0.083 2.857,0.846c0.633,0.764 1.68,1.185 2.327,0.937c0.647,-0.248 1.962,0.417 2.923,1.479c2.037,2.251 5.471,2.52 7.102,0.556Z" style="fill:#c7c7c7;fill-rule:nonzero;"/><path id="PU" d="M725.704,612.436c0.519,-6.754 1.72,-9.814 5.216,-13.289c2.816,-2.8 2.692,-5.37 -0.614,-12.658c-2.889,-6.372 -7.918,-11.754 -20.14,-21.556c-5.182,-4.155 -6.391,-5.66 -6.851,-8.525c-0.635,-3.945 -1.849,-4.899 -10.328,-8.111c-16.239,-6.153 -22.71,-9.908 -31.033,-18.011c-8.691,-8.461 -11.208,-9.898 -30.37,-17.331c-17.812,-6.909 -19.782,-7.797 -34.119,-15.365c-7.552,-3.987 -14.807,-7.622 -16.122,-8.077c-6.569,-2.274 -11.696,-11.524 -9.217,-16.63c0.645,-1.328 3.524,-3.555 6.653,-5.144c10.037,-5.097 12.91,-9.802 9.95,-16.297c-1.731,-3.8 -5.768,-5.022 -13.569,-4.109c-3.651,0.428 -16.002,1.027 -27.445,1.332c-23.618,0.63 -21.008,-0.516 -22.022,9.67c-0.411,4.13 -0.238,4.979 1.015,4.979c0.878,0 1.51,0.794 1.51,1.897c0,1.043 -0.56,1.896 -1.245,1.896c-0.685,0 -2.492,1.302 -4.017,2.893c-2.102,2.194 -3.462,2.824 -5.63,2.608c-2.796,-0.279 -2.851,-0.203 -2.528,3.508c0.299,3.433 2.66,7.086 4.609,7.129c0.413,0.009 1.711,1.029 2.884,2.267c2.197,2.318 2.864,6.636 1.186,7.674c-1.42,0.877 -1.143,2.371 0.44,2.371c0.764,0 1.853,0.865 2.419,1.923c0.566,1.057 1.383,1.704 1.815,1.437c1.362,-0.841 6.706,2.396 6.7,4.058c-0.004,0.875 -0.66,2.843 -1.458,4.374c-1.338,2.567 -1.314,2.921 0.313,4.548c1.132,1.133 3.268,1.81 5.962,1.892c2.308,0.071 5.039,0.691 6.068,1.379c2.411,1.613 4.097,1.583 5.781,-0.101c0.971,-0.971 3.221,-1.277 7.993,-1.086c3.652,0.146 6.641,-0.03 6.641,-0.392c0,-0.362 1.142,-1.179 2.538,-1.815c2.129,-0.97 2.673,-0.918 3.367,0.322c0.455,0.813 1.542,1.478 2.415,1.478c2.119,0 8.013,6.716 7.485,8.527c-0.229,0.787 -0.692,2.092 -1.028,2.901c-0.782,1.883 5.316,5.084 6.82,3.58c1.669,-1.669 4.793,0.12 5.861,3.355c0.563,1.705 3.386,5.578 6.273,8.607l5.251,5.509l2.297,-2.159c2.479,-2.329 8.194,-3.296 11.352,-1.92c1.043,0.454 2.643,1.065 3.556,1.357c1.396,0.446 1.66,1.721 1.66,8.028c0,10.487 0.701,13.424 3.206,13.424c1.344,0 2.453,0.977 3.313,2.919l1.292,2.92l3.772,-3.926c2.074,-2.159 4.781,-4.309 6.016,-4.779c2.897,-1.101 19.575,1.066 20.09,2.611c0.206,0.618 -1.186,1.775 -3.094,2.572c-1.977,0.827 -3.297,1.965 -3.069,2.648c0.219,0.66 3.351,2.906 6.959,4.993c5.757,3.329 7.197,3.765 11.775,3.564c6.834,-0.3 18.766,1.477 21.367,3.181c3.334,2.184 9.116,15.529 8.861,20.451c-0.118,2.281 0.181,4.834 0.663,5.675c1.744,3.036 9.134,8.38 11.636,8.414c1.385,0.018 3.585,0.643 4.889,1.389c1.304,0.745 2.633,1.37 2.954,1.388c0.322,0.019 0.806,-2.846 1.076,-6.367Z" style="fill:#c7c7c7;fill-rule:nonzero;"/><path id="MO" d="M498.916,488.918c1.555,0 3.057,-0.811 3.926,-2.12c1.229,-1.851 1.61,-1.954 2.993,-0.806c1.194,0.991 2.103,1.068 3.686,0.31c1.156,-0.553 2.897,-1.262 3.868,-1.576c1.445,-0.468 1.553,-0.828 0.595,-1.984c-0.645,-0.776 -1.319,-3.505 -1.498,-6.062c-0.368,-5.245 1.076,-7.294 4.396,-6.24c2.909,0.923 7.855,-3.822 6.542,-6.277c-0.981,-1.832 -0.619,-7.626 0.833,-13.347c0.834,-3.283 0.729,-3.554 -1.776,-4.591c-1.464,-0.606 -2.875,-1.659 -3.136,-2.34c-0.261,-0.68 -2.745,-1.987 -5.521,-2.903c-2.775,-0.917 -5.988,-2.278 -7.138,-3.026c-2.287,-1.485 -4.072,-0.93 -4.072,1.264c0,0.769 -1.28,2.65 -2.845,4.179c-1.565,1.53 -2.845,3.415 -2.845,4.189c0,0.774 -0.536,1.748 -1.191,2.165c-1.597,1.017 -6.396,7.511 -6.396,8.655c0,1.066 -2.276,2.061 -4.716,2.061c-1.08,0 -1.958,-0.964 -2.369,-2.603c-0.826,-3.288 -2.22,-4.983 -4.099,-4.983c-0.808,0 -2.267,-0.723 -3.243,-1.607c-1.681,-1.521 -1.9,-1.471 -4.144,0.949c-1.302,1.405 -2.991,2.554 -3.752,2.554c-1.788,0 -1.77,1.344 0.038,2.845c2.297,1.906 1.63,3.204 -2.632,5.117c-2.203,0.989 -4.935,2.634 -6.07,3.656c-1.135,1.021 -2.557,1.552 -3.16,1.179c-0.607,-0.375 -0.409,0.653 0.443,2.3c0.847,1.637 1.321,3.33 1.054,3.762c-0.267,0.432 -0.09,2.163 0.392,3.847c0.586,2.042 0.533,3.614 -0.158,4.721c-1.539,2.464 0.264,7.108 2.91,7.497c1.873,0.274 1.982,0.101 0.965,-1.528c-0.932,-1.492 -0.853,-2.259 0.418,-4.074c2.31,-3.298 7.161,-3.259 15.102,0.12c3.62,1.54 7.191,2.801 7.935,2.801c0.744,0 1.598,0.64 1.899,1.422c0.3,0.783 1.541,1.423 2.759,1.423c1.217,0 2.48,0.431 2.805,0.958c0.375,0.607 1.344,0.433 2.638,-0.474c1.125,-0.788 3.179,-1.433 4.564,-1.433Z" style="fill:#c7c7c7;fill-rule:nonzero;"/><path id="BA" d="M591.281,608.852c2.086,-0.751 4.898,-1.373 6.249,-1.38c2.891,-0.017 4.196,-2.331 5.155,-9.137c0.762,-5.412 2.393,-7.097 5.968,-6.169c2.98,0.775 10.984,0.581 12.409,-0.299c0.543,-0.336 1.497,-2.406 2.122,-4.601c0.624,-2.195 2.698,-6.338 4.609,-9.206c3.381,-5.076 3.428,-5.265 1.736,-7.042c-0.956,-1.004 -1.738,-2.39 -1.738,-3.082c0,-0.698 -1.023,-1.256 -2.303,-1.256c-2.077,0 -2.354,-0.487 -2.838,-4.979c-0.294,-2.738 -0.668,-7.539 -0.83,-10.668c-0.261,-5.026 -0.538,-5.725 -2.378,-5.993c-1.145,-0.167 -2.082,-0.7 -2.082,-1.185c0,-1.349 -1.592,-1.053 -3.249,0.604c-0.847,0.847 -2.247,1.246 -3.253,0.927c-1.021,-0.324 -2.271,0.049 -2.964,0.884c-0.659,0.794 -2.005,1.444 -2.992,1.444c-2.365,0 -10.706,-8.884 -13.137,-13.992c-1.684,-3.537 -2.135,-3.899 -3.67,-2.941c-1.401,0.875 -2.722,0.653 -6.631,-1.114c-5.26,-2.377 -5.644,-2.9 -3.459,-4.713c0.782,-0.649 1.422,-1.723 1.422,-2.386c0,-1.625 -4.597,-6.304 -7.835,-7.974c-2.36,-1.218 -2.743,-1.181 -3.881,0.375c-1.081,1.478 -2.233,1.657 -7.998,1.245c-7.586,-0.543 -8.397,0.07 -6.664,5.039c0.855,2.454 0.739,3.523 -0.645,5.954c-3.037,5.335 -5.885,7.443 -9.102,6.737l-2.87,-0.631l0.675,6.015c0.428,3.814 1.23,6.409 2.191,7.091c0.834,0.591 2.583,1.951 3.886,3.02c2.213,1.816 2.266,2.053 0.796,3.548c-1.469,1.495 -1.415,1.739 0.806,3.649c1.374,1.182 2.474,3.237 2.602,4.86c0.262,3.314 2.41,7.081 4.038,7.081c0.631,0 1.489,0.533 1.906,1.185c0.417,0.652 1.611,1.656 2.655,2.231c1.043,0.574 2.039,2.068 2.214,3.319c0.175,1.25 1.401,3.419 2.726,4.82c2.897,3.062 2.466,6.379 -1.136,8.739c-1.31,0.858 -2.382,2.384 -2.382,3.391c0,1.006 -0.493,2.913 -1.096,4.236c-0.892,1.957 -0.776,3.117 0.618,6.209c0.943,2.091 2.121,3.802 2.619,3.802c0.497,0 2.172,-1.067 3.722,-2.371c3.053,-2.568 4.141,-2.88 5.031,-1.442c0.362,0.586 1.249,0.508 2.403,-0.213c1.52,-0.949 2.049,-0.841 3.131,0.638c0.716,0.98 1.794,1.477 2.394,1.106c0.653,-0.403 1.093,-0.055 1.093,0.866c0,4.983 3.204,6.192 9.957,3.759Z" style="fill:#c7c7c7;fill-rule:nonzero;"/><g id="SAR"><path id="path2870" d="M105.257,671.32c0.008,-0.627 -0.788,-0.887 -1.86,-0.606c-1.558,0.407 -1.701,0.813 -0.846,2.41c0.826,1.544 1.19,1.663 1.859,0.606c0.458,-0.722 0.839,-1.807 0.847,-2.41Z" style="fill:#fff;fill-rule:nonzero;stroke:#000;stroke-width:1px;"/><path id="SA" d="M145.35,687.137c4.049,-4.049 4.635,-5.095 4.121,-7.35c-1.131,-4.953 -1.779,-17.059 -0.941,-17.575c0.461,-0.284 5.076,0.429 10.255,1.585c7.929,1.768 10.053,2.653 13.438,5.597c2.289,1.991 5.023,3.497 6.35,3.497c2.594,0 4.959,-2.218 4.007,-3.758c-0.338,-0.548 0.905,-7.757 2.764,-16.02c2.494,-11.091 3.379,-17.234 3.379,-23.465c0,-4.642 0.64,-11.785 1.422,-15.873c1.868,-9.762 1.848,-16.163 -0.055,-17.743c-1.959,-1.626 -4.212,-7.143 -4.212,-10.316c0,-2.979 4.548,-10.542 7.644,-12.711c1.991,-1.394 4.636,-7.028 4.669,-9.944c0.008,-0.687 -1.052,-2.648 -2.356,-4.357c-1.666,-2.185 -2.387,-4.351 -2.425,-7.286c-0.034,-2.635 -1.35,-7.157 -3.561,-12.239l-3.506,-8.061l-4.026,-0.291c-4.658,-0.338 -5.109,-1.438 -1.418,-3.458c6.408,-3.508 6.515,-3.748 4.034,-9.045c-2.117,-4.521 -2.734,-5.014 -12.565,-10.042c-5.686,-2.909 -10.946,-5.055 -11.69,-4.769c-0.744,0.285 -1.353,1.596 -1.353,2.911c0,1.913 -1.053,2.987 -5.256,5.359c-4.772,2.693 -7.183,5.196 -15.538,16.124c-1.336,1.746 -3.094,2.639 -5.955,3.023c-2.7,0.362 -4.698,1.318 -5.963,2.852c-2.799,3.398 -5.441,4.449 -11.181,4.449c-6.91,0 -10.867,-1.524 -12.585,-4.845c-0.78,-1.508 -1.775,-2.742 -2.211,-2.742c-1.181,0 -3.733,13.914 -2.817,15.358c0.432,0.681 0.791,2.326 0.799,3.656c0.019,3.076 1.636,4.691 4.709,4.704c2.616,0.01 2.351,-0.446 9.622,16.585c3.155,7.39 3.647,9.516 3.673,15.849c0.019,4.948 -0.567,8.936 -1.812,12.328c-3.327,9.061 -3.549,14.23 -0.483,11.251c1.562,-1.517 5.837,-0.019 6.957,2.439c1.094,2.4 0.545,8.932 -1.003,11.95c-0.984,1.916 -4.161,2.219 -4.971,0.474c-0.302,-0.652 -0.31,1.244 -0.017,4.213c0.377,3.82 -0.031,7.561 -1.395,12.802c-2.625,10.081 -2.729,11.879 -0.803,13.805c2.19,2.191 2.107,5.702 -0.185,7.777c-1.822,1.649 -1.817,1.71 0.416,5.125c2.715,4.15 4,8.673 2.466,8.673c-0.585,0 -1.901,-0.523 -2.924,-1.162c-3.135,-1.959 -4.176,0.193 -2.327,4.814c1.867,4.666 2.889,4.961 3.741,1.081c0.669,-3.045 3.273,-5.055 5.462,-4.215c0.733,0.282 2.287,2.812 3.452,5.624c2.659,6.415 4.019,7.659 6.606,6.044c1.586,-0.991 2.464,-0.929 5.053,0.359c4.646,2.31 5.346,2.107 10.495,-3.041Z" style="fill:#fff;fill-rule:nonzero;stroke:#000;stroke-width:1px;"/><path id="SA1" serif:id="SA" d="M107.168,515.415c0,-0.552 -0.427,-0.74 -0.949,-0.418c-1.215,0.751 -1.215,1.422 0,1.422c0.522,0 0.949,-0.451 0.949,-1.004Z" style="fill:#fff;fill-rule:nonzero;stroke:#000;stroke-width:1px;"/></g></g></svg>